<svg viewBox="0 0 1 1" xmlns="http://www.w3.org/2000/svg">
<polyline points="0.5356111526489258,0.1604098081588745 0.53383469581604,0.16020584106445312 0.5320557355880737,0.16000103950500488 0.530274510383606,0.15979552268981934 0.528490424156189,0.15958893299102783 0.5267043709754944,0.15938186645507812 0.5249166488647461,0.1591740846633911 0.5231271386146545,0.15896546840667725 0.5213353633880615,0.15875673294067383 0.5195422768592834,0.1585472822189331 0.517747700214386,0.15833735466003418 0.5159515738487244,0.15812742710113525 0.5141546130180359,0.15791666507720947 0.5123564600944519,0.1577061414718628 0.5105571150779724,0.15749526023864746 0.5087574124336243,0.15728425979614258 0.5069567561149597,0.15707337856292725 0.5051556825637817,0.15686249732971191 0.5033540725708008,0.15665185451507568 0.5015520453453064,0.15644145011901855 0.4997499883174896,0.15623104572296143 0.49794796109199524,0.15602123737335205 0.49614599347114563,0.15581166744232178 0.49434420466423035,0.15560269355773926 0.4925423562526703,0.1553943157196045 0.4907413423061371,0.15518653392791748 0.48894062638282776,0.15497970581054688 0.4871405065059662,0.15477335453033447 0.4853411018848419,0.15456807613372803 0.48354271054267883,0.154363751411438 0.4817452132701874,0.1541602611541748 0.47994837164878845,0.15395832061767578 0.47815290093421936,0.15375733375549316 0.476358562707901,0.15355777740478516 0.4745655953884125,0.15335965156555176 0.4727735221385956,0.15316271781921387 0.4709831774234772,0.1529674530029297 0.46919453144073486,0.15277409553527832 0.4674070477485657,0.1525822877883911 0.46562135219573975,0.15239226818084717 0.46383732557296753,0.15220427513122559 0.4620552659034729,0.15201807022094727 0.46027472615242004,0.15183424949645996 0.4584963321685791,0.15165257453918457 0.45671945810317993,0.15147316455841064 0.4549448788166046,0.15129613876342773 0.45317164063453674,0.1511216163635254 0.45140162110328674,0.15094971656799316 0.4496327340602875,0.1507805585861206 0.44786638021469116,0.15061402320861816 0.4461019039154053,0.15045034885406494 0.444339781999588,0.1502898931503296 0.44257959723472595,0.150132417678833 0.4408215284347534,0.14997804164886475 0.43906593322753906,0.14982736110687256 0.4373123049736023,0.14967966079711914 0.43556076288223267,0.1495356559753418 0.433811753988266,0.14939522743225098 0.43206489086151123,0.14925861358642578 0.4303200840950012,0.1491258144378662 0.4285773038864136,0.14899694919586182 0.42683643102645874,0.1488722562789917 0.4250982701778412,0.1487516164779663 0.42336174845695496,0.1486353874206543 0.4216274917125702,0.1485234498977661 0.4198952615261078,0.14841604232788086 0.4181651175022125,0.14831340312957764 0.41643673181533813,0.148215651512146 0.41471031308174133,0.14812254905700684 0.4129859507083893,0.1480346918106079 0.41126298904418945,0.14795184135437012 0.4095417261123657,0.14787423610687256 0.4078226685523987,0.14780199527740479 0.4061049222946167,0.14773523807525635 0.4043886363506317,0.1476740837097168 0.4026740789413452,0.14761853218078613 0.400960773229599,0.1475691795349121 0.39924895763397217,0.14752566814422607 0.39753806591033936,0.14748835563659668 0.39582887291908264,0.14745724201202393 0.39412036538124084,0.14743244647979736 0.39241304993629456,0.1474142074584961 0.3907066583633423,0.14740264415740967 0.38900095224380493,0.14739787578582764 0.387296199798584,0.14739990234375 0.3855922520160675,0.1474090814590454 0.38388851284980774,0.14742541313171387 0.3821854889392853,0.14744889736175537 0.3804830014705658,0.14747989177703857 0.3787805140018463,0.14751851558685303 0.3770782947540283,0.14756476879119873 0.3753763735294342,0.14761865139007568 0.37367430329322815,0.147680401802063 0.37197181582450867,0.14775049686431885 0.3702697157859802,0.1478288173675537 0.3685670495033264,0.14791524410247803 0.3668641149997711,0.14801025390625 0.36516064405441284,0.14811360836029053 0.3634566366672516,0.14822602272033691 0.3617520034313202,0.14834702014923096 0.3600466847419739,0.14847707748413086 0.35834041237831116,0.14861595630645752 0.35663333535194397,0.14876413345336914 0.35492539405822754,0.14892172813415527 0.3532164692878723,0.14908838272094727 0.3515060842037201,0.14926505088806152 0.34979504346847534,0.14945101737976074 0.348082035779953,0.14964675903320312 0.34636810421943665,0.14985251426696777 0.34465304017066956,0.15006792545318604 0.34293636679649353,0.15029370784759521 0.3412180244922638,0.15052950382232666 0.3394986093044281,0.15077567100524902 0.33777743577957153,0.1510319709777832 0.3360547721385956,0.15129876136779785 0.334330677986145,0.15157592296600342 0.3326050043106079,0.15186381340026855 0.33087804913520813,0.1521623134613037 0.329149454832077,0.152471661567688 0.32741889357566833,0.15279161930084229 0.3256871700286865,0.1531224250793457 0.32395386695861816,0.1534641981124878 0.322219580411911,0.15381693840026855 0.3204836845397949,0.15418052673339844 0.3187465965747833,0.15455520153045654 0.31700825691223145,0.15494096279144287 0.31526896357536316,0.15533792972564697 0.31352853775024414,0.1557459831237793 0.31178706884384155,0.15616512298583984 0.31004512310028076,0.1565953493118286 0.30830252170562744,0.15703654289245605 0.3065594732761383,0.15748906135559082 0.3048159182071686,0.1579526662826538 0.303072452545166,0.15842735767364502 0.30132928490638733,0.15891289710998535 0.2995859980583191,0.15940964221954346 0.29784339666366577,0.15991723537445068 0.2961015999317169,0.16043567657470703 0.2943606972694397,0.1609649658203125 0.29262101650238037,0.1615051031112671 0.2908827066421509,0.1620558500289917 0.2891465127468109,0.16261720657348633 0.28741219639778137,0.16318881511688232 0.2856805920600891,0.16377103328704834 0.2839515209197998,0.16436338424682617 0.2822258770465851,0.16496562957763672 0.28050345182418823,0.16557812690734863 0.27878525853157043,0.16620028018951416 0.27707087993621826,0.16683220863342285 0.2753615081310272,0.1674731969833374 0.2736567556858063,0.16812396049499512 0.2719583213329315,0.1687835454940796 0.2702653408050537,0.16945195198059082 0.26857873797416687,0.17012929916381836 0.2668994665145874,0.1708146333694458 0.2652275562286377,0.1715085506439209 0.2635633945465088,0.17221033573150635 0.2619077265262604,0.1729198694229126 0.2602613568305969,0.17363667488098145 0.2586241364479065,0.1743607521057129 0.256997287273407,0.17509174346923828 0.2553810477256775,0.17582941055297852 0.2537757158279419,0.17657315731048584 0.25218239426612854,0.17732298374176025 0.25060176849365234,0.17807841300964355 0.249034121632576,0.1788393259048462 0.24747957289218903,0.1796051263809204 0.24593965709209442,0.180375337600708 0.24441473186016083,0.18115031719207764 0.24290509521961212,0.1819288730621338 0.24141190946102142,0.18271100521087646 0.23993535339832306,0.18349623680114746 0.23847614228725433,0.18428432941436768 0.23703525960445404,0.185075044631958 0.2356128841638565,0.18586742877960205 0.23421011865139008,0.1866614818572998 0.23282770812511444,0.18745696544647217 0.23146562278270721,0.18825304508209229 0.23012544214725494,0.18904948234558105 0.22880665957927704,0.18984591960906982 0.22751106321811676,0.1906418800354004 0.22623862326145172,0.191436767578125 0.2249903529882431,0.19223058223724365 0.2237667292356491,0.19302260875701904 0.2225685566663742,0.19381225109100342 0.2213962823152542,0.19459950923919678 0.2202507108449936,0.19538354873657227 0.21913234889507294,0.19616425037384033 0.21804170310497284,0.19694113731384277 0.21697966754436493,0.19771349430084229 0.21594659984111786,0.19848108291625977 0.21494337916374207,0.19924354553222656 0.21397055685520172,0.20000040531158447 0.2130279690027237,0.20075130462646484 0.21211697161197662,0.20149564743041992 0.21123823523521423,0.2022331953048706 0.21039143204689026,0.2029634714126587 0.20957784354686737,0.20368611812591553 0.20879779756069183,0.20440077781677246 0.20805150270462036,0.2051072120666504 0.20733965933322906,0.2058044672012329 0.20666253566741943,0.20649290084838867 0.20602095127105713,0.20717155933380127 0.20541517436504364,0.20784032344818115 0.204845130443573,0.20849895477294922 0.20431196689605713,0.20914673805236816 0.20381544530391693,0.2097839117050171 0.20335648953914642,0.2104097604751587 0.20293490588665009,0.21102404594421387 0.20255137979984283,0.21162641048431396 0.2022058069705963,0.21221685409545898 0.20189866423606873,0.21279478073120117 0.2016303986310959,0.21336019039154053 0.2014012485742569,0.21391260623931885 0.20121097564697266,0.21445178985595703 0.20106008648872375,0.21497750282287598 0.200949028134346,0.21548974514007568 0.20087721943855286,0.21598827838897705 0.20084550976753235,0.21647238731384277 0.20085370540618896,0.21694254875183105 0.20090223848819733,0.21739840507507324 0.2009904533624649,0.21783959865570068 0.20111921429634094,0.21826624870300293 0.201288104057312,0.21867799758911133 0.20149736106395721,0.21907460689544678 0.20174671709537506,0.21945643424987793 0.20203614234924316,0.21982312202453613 0.20236623287200928,0.22017443180084229 0.20273634791374207,0.22051048278808594 0.20314647257328033,0.220831036567688 0.2035965621471405,0.2211364507675171 0.20408649742603302,0.2214263677597046 0.20461656153202057,0.22170066833496094 0.20518608391284943,0.22195947170257568 0.20579496026039124,0.22220277786254883 0.2064433991909027,0.22243070602416992 0.20713087916374207,0.22264313697814941 0.20785710215568542,0.22283995151519775 0.20862218737602234,0.2230215072631836 0.20942597091197968,0.22318756580352783 0.21026794612407684,0.22333836555480957 0.211147740483284,0.2234739065170288 0.21206527948379517,0.22359442710876465 0.21302038431167603,0.223699688911438 0.2140125334262848,0.22379028797149658 0.2150416523218155,0.22386574745178223 0.2161070555448532,0.22392630577087402 0.21720875799655914,0.22397255897521973 0.21834640204906464,0.22400426864624023 0.2195194512605667,0.22402143478393555 0.2207275778055191,0.22402441501617432 0.22197069227695465,0.2240133285522461 0.22324781119823456,0.22398829460144043 0.22455932199954987,0.22394955158233643 0.225904181599617,0.22389709949493408 0.22728224098682404,0.22383129596710205 0.22869308292865753,0.22375214099884033 0.23013637959957123,0.22366023063659668 0.23161156475543976,0.2235550880432129 0.23311825096607208,0.22343754768371582 0.23465590178966522,0.22330725193023682 0.23622433841228485,0.22316491603851318 0.2378227859735489,0.22301030158996582 0.23945097625255585,0.22284388542175293 0.24110834300518036,0.22266578674316406 0.24279461801052094,0.22247636318206787 0.2445089966058731,0.22227561473846436 0.24625159800052643,0.22206401824951172 0.24802131950855255,0.22184133529663086 0.24981807172298431,0.22160828113555908 0.25164124369621277,0.2213648557662964 0.2534901201725006,0.22111141681671143 0.25536447763442993,0.2208479642868042 0.25726380944252014,0.22057485580444336 0.2591876983642578,0.220292329788208 0.2611355483531952,0.2200007438659668 0.2631067633628845,0.21969997882843018 0.26510095596313477,0.2193903923034668 0.2671179473400116,0.21907258033752441 0.26915669441223145,0.21874642372131348 0.2712169289588928,0.21841216087341309 0.273298054933548,0.2180701494216919 0.2753998339176178,0.21772050857543945 0.2775215208530426,0.21736347675323486 0.27966293692588806,0.21699917316436768 0.2818232476711273,0.2166283130645752 0.2840019166469574,0.21625053882598877 0.28619882464408875,0.2158663272857666 0.28841307759284973,0.2154759168624878 0.29064449667930603,0.21507930755615234 0.2928922176361084,0.21467697620391846 0.295156329870224,0.21426928043365479 0.29743555188179016,0.21385586261749268 0.29973021149635315,0.21343755722045898 0.30203935503959656,0.21301424503326416 0.30436259508132935,0.2125861644744873 0.3066994547843933,0.21215343475341797 0.3090492784976959,0.2117166519165039 0.3114120066165924,0.21127545833587646 0.3137865662574768,0.2108304500579834 0.31617313623428345,0.21038174629211426 0.31857067346572876,0.2099294662475586 0.32097914814949036,0.20947372913360596 0.323397696018219,0.20901477336883545 0.32582613825798035,0.20855307579040527 0.3282640278339386,0.20808851718902588 0.33071041107177734,0.20762133598327637 0.33316555619239807,0.2071518898010254 0.3356283903121948,0.2066798210144043 0.33809876441955566,0.2062058448791504 0.3405764400959015,0.20572996139526367 0.3430604040622711,0.2052522897720337 0.34555065631866455,0.2047731876373291 0.34804651141166687,0.20429253578186035 0.35054758191108704,0.20381057262420654 0.353053480386734,0.20332741737365723 0.3555636405944824,0.20284342765808105 0.3580780327320099,0.20235860347747803 0.36059558391571045,0.2018733024597168 0.3631162941455841,0.20138704776763916 0.36563974618911743,0.20090091228485107 0.36816534399986267,0.20041418075561523 0.37069272994995117,0.19992756843566895 0.37322163581848145,0.199440598487854 0.3757513463497162,0.19895410537719727 0.3782818913459778,0.19846796989440918 0.38081231713294983,0.19798195362091064 0.3833424746990204,0.19749653339385986 0.3858720362186432,0.19701194763183594 0.3884006440639496,0.19652807712554932 0.3909277319908142,0.19604480266571045 0.39345309138298035,0.19556283950805664 0.39597657322883606,0.19508183002471924 0.3984968662261963,0.1946018934249878 0.401014506816864,0.19412362575531006 0.40352874994277954,0.19364666938781738 0.4060398042201996,0.19317102432250977 0.4085463583469391,0.19269704818725586 0.4110484719276428,0.19222486019134521 0.41354596614837646,0.19175434112548828 0.41603854298591614,0.1912858486175537 0.4185255169868469,0.19081926345825195 0.421006977558136,0.1903548240661621 0.4234822988510132,0.18989241123199463 0.4259507954120636,0.1894322633743286 0.4284129738807678,0.18897438049316406 0.4308681786060333,0.18851888179779053 0.43331605195999146,0.18806588649749756 0.4357558488845825,0.18761563301086426 0.4381881058216095,0.18716764450073242 0.4406122863292694,0.1867225170135498 0.4430275559425354,0.18628013134002686 0.4454343616962433,0.18584072589874268 0.44783222675323486,0.18540418148040771 0.45022058486938477,0.18497061729431152 0.4525991380214691,0.18453991413116455 0.4549684226512909,0.18411242961883545 0.4573274254798889,0.18368816375732422 0.45967623591423035,0.18326711654663086 0.4620146155357361,0.18284940719604492 0.4643421173095703,0.18243467807769775 0.46665889024734497,0.18202388286590576 0.46896451711654663,0.1816161870956421 0.47125867009162903,0.1812121868133545 0.47354158759117126,0.18081164360046387 0.4758130609989166,0.18041479587554932 0.47807225584983826,0.18002164363861084 0.480320006608963,0.17963218688964844 0.48255518078804016,0.17924678325653076 0.48477819561958313,0.1788649559020996 0.4869891107082367,0.17848718166351318 0.48918744921684265,0.17811334133148193 0.4913733899593353,0.17774367332458496 0.49354633688926697,0.17737770080566406 0.4957065284252167,0.17701613903045654 0.49785420298576355,0.17665863037109375 0.49998852610588074,0.17630553245544434 0.5021101832389832,0.17595648765563965 0.5042190551757812,0.1756117343902588 0.5063145160675049,0.1752713918685913 0.5083968043327332,0.17493557929992676 0.5104663968086243,0.17460429668426514 0.5125227570533752,0.1742771863937378 0.5145660638809204,0.17395508289337158 0.5165964365005493,0.17363739013671875 0.5186138153076172,0.1733243465423584 0.5206181406974792,0.17301607131958008 0.5226094126701355,0.1727125644683838 0.5245879888534546,0.17241394519805908 0.5265536308288574,0.17211997509002686 0.5285071730613708,0.1718308925628662 0.5304473638534546,0.17154717445373535 0.5323756337165833,0.17126810550689697 0.5342912077903748,0.17099404335021973 0.5361948609352112,0.17072546482086182 0.5380865335464478,0.17046165466308594 0.5399659872055054,0.1702033281326294 0.5418335795402527,0.16995000839233398 0.5436900854110718,0.16970205307006836 0.5455349683761597,0.16945958137512207 0.5473687052726746,0.16922235488891602 0.5491913557052612,0.1689906120300293 0.5510034561157227,0.16876423358917236 0.5528051853179932,0.16854345798492432 0.5545964241027832,0.1683281660079956 0.5563777089118958,0.16811847686767578 0.5581490397453308,0.16791462898254395 0.5599108338356018,0.167716383934021 0.5616638660430908,0.16752386093139648 0.563407838344574,0.16733694076538086 0.5651432275772095,0.16715610027313232 0.566870391368866,0.16698074340820312 0.5685893297195435,0.16681146621704102 0.5703010559082031,0.166648268699646 0.5720049738883972,0.16649079322814941 0.5737019777297974,0.16633927822113037 0.5753926038742065,0.16619384288787842 0.5770769715309143,0.16605448722839355 0.5787550210952759,0.16592109203338623 0.5804277062416077,0.1657935380935669 0.5820955634117126,0.16567230224609375 0.5837578177452087,0.1655571460723877 0.5854164361953735,0.16544830799102783 0.5870707035064697,0.1653451919555664 0.5887212157249451,0.16524851322174072 0.590368390083313,0.16515779495239258 0.5920131206512451,0.16507351398468018 0.5936548709869385,0.1649951934814453 0.5952948331832886,0.16492271423339844 0.5969327688217163,0.16485655307769775 0.5985698699951172,0.16479671001434326 0.6002061367034912,0.16474270820617676 0.6018412709236145,0.16469502449035645 0.603476881980896,0.16465306282043457 0.6051125526428223,0.16461718082427979 0.6067490577697754,0.1645873785018921 0.6083862781524658,0.16456341743469238 0.6100252270698547,0.164544939994812 0.6116659045219421,0.16453278064727783 0.6133086085319519,0.164526104927063 0.6149540543556213,0.16452515125274658 0.6166021823883057,0.16452980041503906 0.618253767490387,0.16453993320465088 0.6199089288711548,0.16455543041229248 0.6215675473213196,0.16457617282867432 0.6232309341430664,0.16460227966308594 0.6248986721038818,0.1646331548690796 0.6265709400177002,0.16466915607452393 0.628248393535614,0.1647101640701294 0.6299315094947815,0.1647557020187378 0.6316196918487549,0.16480565071105957 0.6333143711090088,0.16486012935638428 0.6350147724151611,0.16491854190826416 0.6367211937904358,0.16498136520385742 0.6384344100952148,0.16504764556884766 0.6401545405387878,0.16511774063110352 0.6418809294700623,0.16519129276275635 0.6436148285865784,0.16526806354522705 0.6453552842140198,0.16534769535064697 0.647102952003479,0.16543006896972656 0.6488578915596008,0.16551518440246582 0.65062016248703,0.1656022071838379 0.6523900032043457,0.16569113731384277 0.6541668176651001,0.16578185558319092 0.6559513211250305,0.16587412357330322 0.6577428579330444,0.16596722602844238 0.659541666507721,0.16606104373931885 0.6613476872444153,0.16615533828735352 0.6631607413291931,0.16624963283538818 0.6649808883666992,0.1663438081741333 0.6668079495429993,0.1664372682571411 0.6686415672302246,0.16652965545654297 0.6704816222190857,0.16662073135375977 0.6723281145095825,0.1667100191116333 0.6741804480552673,0.16679704189300537 0.6760385632514954,0.16688120365142822 0.677902340888977,0.16696250438690186 0.6797709465026855,0.16704034805297852 0.6816444993019104,0.1671142578125 0.6835228204727173,0.167183518409729 0.6854047775268555,0.16724801063537598 0.6872909665107727,0.16730713844299316 0.6891803741455078,0.1673603057861328 0.691072404384613,0.16740739345550537 0.6929669380187988,0.16744744777679443 0.6948633193969727,0.16747987270355225 0.6967616081237793,0.1675046682357788 0.6986603736877441,0.16752099990844727 0.700559675693512,0.1675281524658203 0.7024589776992798,0.16752588748931885 0.7043572664260864,0.16751372814178467 0.7062546014785767,0.16749060153961182 0.7081502079963684,0.1674562692642212 0.7100428938865662,0.1674104928970337 0.7119325995445251,0.16735219955444336 0.7138186693191528,0.16728103160858154 0.7157002687454224,0.16719627380371094 0.7175770998001099,0.16709744930267334 0.7194480895996094,0.1669842004776001 0.7213127613067627,0.16685569286346436 0.7231705784797668,0.16671109199523926 0.7250205278396606,0.1665506362915039 0.7268623113632202,0.1663728952407837 0.7286949753761292,0.16617774963378906 0.730518102645874,0.16596472263336182 0.732330858707428,0.165732741355896 0.7341325283050537,0.1654815673828125 0.7359222173690796,0.16521108150482178 0.7376998066902161,0.16492021083831787 0.7394640445709229,0.16460847854614258 0.7412147521972656,0.1642754077911377 0.7429507374763489,0.16392064094543457 0.7446717023849487,0.16354358196258545 0.7463772296905518,0.16314363479614258 0.7480660676956177,0.16272056102752686 0.7497378587722778,0.16227352619171143 0.751392126083374,0.16180241107940674 0.7530280947685242,0.1613069772720337 0.7546457648277283,0.16078615188598633 0.756243109703064,0.16024017333984375 0.7578210234642029,0.1596684455871582 0.7593780159950256,0.15907049179077148 0.7609139680862427,0.1584460735321045 0.7624279856681824,0.15779495239257812 0.7639200687408447,0.15711688995361328 0.7653895020484924,0.15641140937805176 0.7668353319168091,0.1556781530380249 0.7682576179504395,0.15491747856140137 0.7696558237075806,0.1541287899017334 0.7710289359092712,0.15331196784973145 0.7723772525787354,0.1524667739868164 0.7737000584602356,0.15159320831298828 0.7749966979026794,0.15069127082824707 0.7762672901153564,0.14976072311401367 0.7775110602378845,0.14880192279815674 0.7787277698516846,0.14781427383422852 0.7799171209335327,0.1467982530593872 0.7810783386230469,0.14575409889221191 0.7822118401527405,0.14468145370483398 0.7833167910575867,0.14358055591583252 0.7843928933143616,0.14245212078094482 0.78544020652771,0.14129531383514404 0.7864583134651184,0.14011144638061523 0.7874467372894287,0.13889968395233154 0.7884056568145752,0.13766133785247803 0.7893343567848206,0.13639652729034424 0.7902330756187439,0.13510513305664062 0.7911012172698975,0.13378775119781494 0.7919387817382812,0.13244497776031494 0.7927457094192505,0.13107728958129883 0.7935212850570679,0.1296849250793457 0.7942660450935364,0.12826871871948242 0.7949793338775635,0.12682902812957764 0.7956613302230835,0.12536656856536865 0.7963119149208069,0.12388181686401367 0.796930193901062,0.12237536907196045 0.797516942024231,0.12084829807281494 0.7980720400810242,0.11930084228515625 0.7985948920249939,0.11773395538330078 0.7990856170654297,0.11614835262298584 0.7995440363883972,0.11454474925994873 0.7999699711799622,0.11292409896850586 0.8003637194633484,0.11128735542297363 0.8007251024246216,0.10963475704193115 0.8010538816452026,0.10796785354614258 0.8013500571250916,0.10628724098205566 0.8016132712364197,0.10459411144256592 0.80184406042099,0.10288882255554199 0.8020424246788025,0.1011728048324585 0.8022079467773438,0.09944701194763184 0.8023406863212585,0.09771239757537842 0.8024406433105469,0.09596943855285645 0.8025078773498535,0.09421992301940918 0.8025426268577576,0.09246432781219482 0.8025442361831665,0.09070384502410889 0.8025133609771729,0.08893954753875732 0.8024495244026184,0.08717226982116699 0.8023532032966614,0.08540332317352295 0.8022244572639465,0.08363354206085205 0.8020630478858948,0.0818638801574707 0.80186927318573,0.08009576797485352 0.8016433715820312,0.07832968235015869 0.801384687423706,0.07656693458557129 0.8010939359664917,0.07480859756469727 0.8007713556289673,0.07305586338043213 0.8004164695739746,0.07130920886993408 0.8000297546386719,0.06956982612609863 0.799611508846283,0.06783890724182129 0.7991616129875183,0.06611752510070801 0.7986803650856018,0.06440603733062744 0.798167884349823,0.0627058744430542 0.7976243495941162,0.06101799011230469 0.7970497608184814,0.05934309959411621 0.7964447736740112,0.05768227577209473 0.7958094477653503,0.05603611469268799 0.7951439023017883,0.0544055700302124 0.7944484949111938,0.052791714668273926 0.7937232851982117,0.05119490623474121 0.7929685711860657,0.049616456031799316 0.7921850681304932,0.048056840896606445 0.7913724184036255,0.0465165376663208 0.790531575679779,0.04499709606170654 0.7896623015403748,0.04349839687347412 0.7887653708457947,0.04202151298522949 0.7878409028053284,0.04056680202484131 0.7868893146514893,0.039135098457336426 0.7859107851982117,0.0377269983291626 0.7849057912826538,0.03634321689605713 0.783875048160553,0.03498399257659912 0.7828187942504883,0.03364968299865723 0.7817370295524597,0.03234124183654785 0.7806309461593628,0.03105902671813965 0.7795003056526184,0.02980339527130127 0.7783457040786743,0.028574705123901367 0.7771679759025574,0.027373433113098145 0.7759669423103333,0.026199698448181152 0.7747436761856079,0.025054335594177246 0.7734983563423157,0.023937225341796875 0.7722312808036804,0.022848844528198242 0.7709436416625977,0.0217893123626709 0.7696352005004883,0.020758986473083496 0.7683066129684448,0.019758105278015137 0.7669587731361389,0.01878666877746582 0.7655918598175049,0.01784491539001465 0.7642067074775696,0.016933321952819824 0.762803316116333,0.016051650047302246 0.7613827586174011,0.015200018882751465 0.7599455714225769,0.014378547668457031 0.7584915161132812,0.013587474822998047 0.757021963596344,0.01282656192779541 0.755537211894989,0.012096166610717773 0.754037618637085,0.011395931243896484 0.7525240778923035,0.010726213455200195 0.7509970664978027,0.010086655616760254 0.7494569420814514,0.009477376937866211 0.7479043006896973,0.008898377418518066 0.7463396787643433,0.008349299430847168 0.7447636723518372,0.007830381393432617 0.7431766390800476,0.0073413848876953125 0.7415797114372253,0.006882190704345703 0.7399726510047913,0.006452679634094238 0.7383565306663513,0.006052732467651367 0.7367317080497742,0.0056819915771484375 0.7350986003875732,0.005340576171875 0.7334579825401306,0.005028367042541504 0.7318099737167358,0.004745006561279297 0.7301556468009949,0.004490256309509277 0.7284952402114868,0.004264116287231445 0.726828932762146,0.004065752029418945 0.7251578569412231,0.0038956403732299805 0.7234818339347839,0.0037533044815063477 0.7218021750450134,0.003638744354248047 0.720118522644043,0.0035512447357177734 0.7184317708015442,0.003491044044494629 0.7167420983314514,0.00345766544342041 0.7150503993034363,0.0034503936767578125 0.713356614112854,0.003470182418823242 0.7116619348526001,0.0035157203674316406 0.7099659442901611,0.0035867691040039062 0.7082695960998535,0.0036836862564086914 0.7065733075141907,0.00380551815032959 0.7048770189285278,0.003952383995056152 0.7031817436218262,0.0041239261627197266 0.7014874815940857,0.004319906234741211 0.6997947096824646,0.0045397281646728516 0.6981039643287659,0.004783511161804199 0.6964150667190552,0.005050778388977051 0.6947290897369385,0.005341529846191406 0.6930458545684814,0.00565493106842041 0.6913660764694214,0.0059909820556640625 0.6896898746490479,0.006349325180053711 0.6880174875259399,0.006729722023010254 0.6863491535186768,0.007132053375244141 0.6846857666969299,0.007555484771728516 0.6830269694328308,0.008000493049621582 0.6813733577728271,0.008465886116027832 0.6797248125076294,0.008952140808105469 0.678082287311554,0.009458661079406738 0.6764456033706665,0.009985089302062988 0.6748148202896118,0.010531187057495117 0.6731904745101929,0.011096596717834473 0.6715728640556335,0.011681556701660156 0.6699620485305786,0.012284994125366211 0.6683580279350281,0.012906789779663086 0.6667613983154297,0.013547062873840332 0.6651722192764282,0.014205336570739746 0.6635903716087341,0.014881372451782227 0.6620165705680847,0.01557469367980957 0.6604504585266113,0.016285300254821777 0.6588926315307617,0.017012596130371094 0.6573429107666016,0.01775658130645752 0.6558015942573547,0.0185166597366333 0.6542686820030212,0.01929318904876709 0.6527442932128906,0.02008521556854248 0.651228666305542,0.020892977714538574 0.6497222185134888,0.021715760231018066 0.6482244729995728,0.022553682327270508 0.646735668182373,0.023406267166137695 0.6452561020851135,0.02427351474761963 0.6437857151031494,0.025155067443847656 0.6423246264457703,0.026050209999084473 0.6408728957176208,0.02695930004119873 0.6394302845001221,0.027881979942321777 0.6379976272583008,0.02881801128387451 0.6365739107131958,0.02976679801940918 0.635159969329834,0.030728459358215332 0.6337556838989258,0.031702637672424316 0.6323609352111816,0.03268933296203613 0.6309757828712463,0.033687710762023926 0.629599928855896,0.03469812870025635 0.6282340288162231,0.03572046756744385 0.6268779039382935,0.03675389289855957 0.625531017780304,0.03779864311218262 0.6241941452026367,0.038854360580444336 0.6228668093681335,0.039920687675476074 0.6215488910675049,0.04099774360656738 0.6202406287193298,0.04208517074584961 0.6189420223236084,0.0431828498840332 0.6176528334617615,0.04429018497467041 0.6163733601570129,0.04540729522705078 0.6151031255722046,0.046534180641174316 0.6138426065444946,0.04767024517059326 0.612591028213501,0.04881560802459717 0.6113492250442505,0.04996967315673828 0.6101166009902954,0.0511326789855957 0.6088932156562805,0.05230438709259033 0.6076789498329163,0.053484320640563965 0.606473982334137,0.0546724796295166 0.6052778363227844,0.05586874485015869 0.6040908694267273,0.057072997093200684 0.6029126644134521,0.058284878730773926 0.6017438173294067,0.059504151344299316 0.6005831956863403,0.06073117256164551 0.5994316339492798,0.061965346336364746 0.5982886552810669,0.06320607662200928 0.5971541404724121,0.06445431709289551 0.5960285663604736,0.06570887565612793 0.5949110984802246,0.06697022914886475 0.5938020348548889,0.06823790073394775 0.5927014946937561,0.06951189041137695 0.5916085243225098,0.07079207897186279 0.5905241966247559,0.07207822799682617 0.5894477963447571,0.07337009906768799 0.5883792638778687,0.07466781139373779 0.5873187184333801,0.07597112655639648 0.5862658619880676,0.07727992534637451 0.585220456123352,0.07859408855438232 0.5841832160949707,0.07991313934326172 0.5831531882286072,0.08123743534088135 0.5821305513381958,0.08256661891937256 0.5811153054237366,0.08390069007873535 0.5801072716712952,0.08523929119110107 0.5791064500808716,0.08658266067504883 0.5781126618385315,0.08793032169342041 0.5771260261535645,0.08928239345550537 0.576146125793457,0.09063863754272461 0.5751732587814331,0.09199905395507812 0.5742070078849792,0.09336340427398682 0.5732476711273193,0.09473180770874023 0.5722945332527161,0.09610390663146973 0.5713480114936829,0.09747946262359619 0.5704077482223511,0.09885907173156738 0.5694741010665894,0.100242018699646 0.5685465335845947,0.10162842273712158 0.5676252245903015,0.10301804542541504 0.5667097568511963,0.10441100597381592 0.5658006072044373,0.10580706596374512 0.5648971199989319,0.10720634460449219 0.5639997124671936,0.10860824584960938 0.5631077885627747,0.11001348495483398 0.5622218251228333,0.11142122745513916 0.5613412261009216,0.11283183097839355 0.5604663491249084,0.11424481868743896 0.5595970153808594,0.11566078662872314 0.5587328672409058,0.11707901954650879 0.5578741431236267,0.11849987506866455 0.5570205450057983,0.11992311477661133 0.556172251701355,0.12134826183319092 0.5553290843963623,0.12277638912200928 0.5544911026954651,0.1242060661315918 0.5536579489707947,0.12563824653625488 0.5528298020362854,0.12707233428955078 0.552006185054779,0.12850821018218994 0.5511878728866577,0.12994623184204102 0.5503739714622498,0.13138604164123535 0.549564778804779,0.13282811641693115 0.5487602353096008,0.1342712640762329 0.547960102558136,0.13571691513061523 0.5471646785736084,0.13716387748718262 0.5463736653327942,0.1386125087738037 0.5455870628356934,0.14006268978118896 0.5448046326637268,0.14151430130004883 0.5440265536308289,0.1429675817489624 0.54325270652771,0.14442229270935059 0.5424829721450806,0.14587843418121338 0.5417174696922302,0.14733588695526123 0.5409557819366455,0.1487947702407837 0.5401984453201294,0.1502552032470703 0.5394448637962341,0.1517164707183838 0.5386953353881836,0.15317928791046143 0.5379495620727539,0.15464305877685547 0.5372076630592346,0.15610826015472412 0.5364695191383362,0.15757465362548828 0.5357351899147034,0.1590416431427002 0.5350044965744019,0.16051030158996582 0.5342775583267212,0.16197991371154785 0.533554196357727,0.16345036029815674 0.5328344106674194,0.16492199897766113 0.5321182012557983,0.16639459133148193 0.5314055681228638,0.1678680181503296 0.5306960344314575,0.1693427562713623 0.5299901366233826,0.17081797122955322 0.529287576675415,0.1722942590713501 0.5285884141921997,0.17377138137817383 0.527892529964447,0.17524957656860352 0.5271998047828674,0.1767284870147705 0.5265103578567505,0.17820847034454346 0.5258241295814514,0.17968904972076416 0.5251410603523254,0.18117022514343262 0.5244609117507935,0.18265247344970703 0.5237840414047241,0.1841355562210083 0.5231102108955383,0.18561923503875732 0.5224393606185913,0.1871035099029541 0.5217713713645935,0.18858885765075684 0.5211065411567688,0.19007492065429688 0.5204445123672485,0.19156157970428467 0.5197854042053223,0.19304895401000977 0.5191291570663452,0.19453704357147217 0.518475353717804,0.19602596759796143 0.5178245902061462,0.1975153684616089 0.5171766877174377,0.19900572299957275 0.5165313482284546,0.20049619674682617 0.5158885717391968,0.2019878625869751 0.5152487754821777,0.20348024368286133 0.5146111249923706,0.20497286319732666 0.5139762163162231,0.20646631717681885 0.5133439898490906,0.2079606056213379 0.5127142667770386,0.20945537090301514 0.5120866894721985,0.21095073223114014 0.5114619135856628,0.212446928024292 0.5108394622802734,0.21394360065460205 0.510219395160675,0.21544098854064941 0.509601354598999,0.21693909168243408 0.5089859366416931,0.2184375524520874 0.5083727836608887,0.21993708610534668 0.5077616572380066,0.2214367389678955 0.507152795791626,0.2229372262954712 0.506546139717102,0.22443830966949463 0.5059418082237244,0.22594010829925537 0.5053393840789795,0.22744238376617432 0.5047389268875122,0.22894561290740967 0.5041406750679016,0.23044931888580322 0.5035443902015686,0.23195350170135498 0.502950131893158,0.23345816135406494 0.5023577213287354,0.23496365547180176 0.5017671585083008,0.23646986484527588 0.5011784434318542,0.2379767894744873 0.5005918145179749,0.23948431015014648 0.5000066161155701,0.24099206924438477 0.49942323565483093,0.24250102043151855 0.49884191155433655,0.24400997161865234 0.49826177954673767,0.24552035331726074 0.4976837933063507,0.24703073501586914 0.4971071779727936,0.2485419511795044 0.49653229117393494,0.2500537633895874 0.4959588348865509,0.25156641006469727 0.4953868091106415,0.25307953357696533 0.4948165714740753,0.2545933723449707 0.4942474067211151,0.2561076879501343 0.4936797320842743,0.25762295722961426 0.4931136667728424,0.259138822555542 0.4925486743450165,0.26065516471862793 0.4919852316379547,0.26217222213745117 0.4914229214191437,0.2636899948120117 0.4908616840839386,0.26520836353302 0.49030187726020813,0.2667273283004761 0.4897432029247284,0.268247127532959 0.48918554186820984,0.2697674036026001 0.48862913250923157,0.27128851413726807 0.4880736768245697,0.27281033992767334 0.48751935362815857,0.27433252334594727 0.48696568608283997,0.2758556604385376 0.48641327023506165,0.2773793935775757 0.4858616888523102,0.2789037227630615 0.4853111207485199,0.28042876720428467 0.48476114869117737,0.2819545269012451 0.48421213030815125,0.2834808826446533 0.4836638867855072,0.28500819206237793 0.4831162393093109,0.2865358591079712 0.4825696051120758,0.2880641222000122 0.4820235073566437,0.2895931005477905 0.48147788643836975,0.29112303256988525 0.4809330999851227,0.2926536798477173 0.48038873076438904,0.29418468475341797 0.4798450171947479,0.29571640491485596 0.4793018400669098,0.29724884033203125 0.47875896096229553,0.29878199100494385 0.47821661829948425,0.30031585693359375 0.4776747524738312,0.3018503189086914 0.4771331250667572,0.3033853769302368 0.47659191489219666,0.3049212694168091 0.4760512411594391,0.30645787715911865 0.47551044821739197,0.3079949617385864 0.47497013211250305,0.3095325231552124 0.47443005442619324,0.31107115745544434 0.4738900363445282,0.3126102685928345 0.47335025668144226,0.3141500949859619 0.4728105962276459,0.31569063663482666 0.47227105498313904,0.3172316551208496 0.471731573343277,0.3187732696533203 0.47119203209877014,0.3203158378601074 0.47065243124961853,0.3218587636947632 0.47011321783065796,0.32340216636657715 0.4695735275745392,0.32494664192199707 0.4690341353416443,0.3264918327331543 0.4684942662715912,0.3280372619628906 0.46795448660850525,0.3295830488204956 0.4674145579338074,0.3311300277709961 0.46687451004981995,0.33267736434936523 0.4663340747356415,0.33422553539276123 0.4657934606075287,0.3357740640640259 0.4652526080608368,0.3373231887817383 0.46471142768859863,0.33887314796447754 0.46417006850242615,0.34042346477508545 0.4636281132698059,0.3419746160507202 0.46308618783950806,0.34352588653564453 0.4625436067581177,0.3450779914855957 0.46200069785118103,0.3466305732727051 0.46145737171173096,0.3481839895248413 0.4609134793281555,0.3497377634048462 0.4603691101074219,0.3512920141220093 0.45982441306114197,0.35284674167633057 0.4592790901660919,0.3544023036956787 0.45873314142227173,0.3559579849243164 0.45818692445755005,0.3575143814086914 0.4576399028301239,0.35907113552093506 0.4570922553539276,0.36062872409820557 0.45654410123825073,0.3621865510940552 0.4559951722621918,0.363744854927063 0.4554457366466522,0.365303635597229 0.4548955261707306,0.3668630123138428 0.454344779253006,0.36842262744903564 0.45379316806793213,0.3699827194213867 0.4532407820224762,0.371543288230896 0.452687531709671,0.373104453086853 0.45213383436203003,0.37466585636138916 0.45157933235168457,0.37622761726379395 0.4510236084461212,0.37778985500335693 0.45046737790107727,0.379352331161499 0.4499101936817169,0.38091522455215454 0.44935229420661926,0.38247859477996826 0.44879335165023804,0.3840422034263611 0.44823360443115234,0.38560599088668823 0.4476730525493622,0.3871704339981079 0.4471116065979004,0.38873493671417236 0.44654902815818787,0.390299916267395 0.4459857642650604,0.3918650150299072 0.4454213082790375,0.3934304714202881 0.44485604763031006,0.39499616622924805 0.4442896246910095,0.3965620994567871 0.44372233748435974,0.3981283903121948 0.44315382838249207,0.39969468116760254 0.4425846338272095,0.4012613892555237 0.4420141279697418,0.4028280973434448 0.44144266843795776,0.40439510345458984 0.4408699572086334,0.40596234798431396 0.44029638171195984,0.40752947330474854 0.4397217333316803,0.40909695625305176 0.43914586305618286,0.41066455841064453 0.43856900930404663,0.41223233938217163 0.4379909038543701,0.4138000011444092 0.4374117851257324,0.41536784172058105 0.43683138489723206,0.4169358015060425 0.43624982237815857,0.4185037612915039 0.43566733598709106,0.4200718402862549 0.4350833594799042,0.4216398000717163 0.43449822068214417,0.42320775985717773 0.4339119791984558,0.42477601766586304 0.4333244562149048,0.4263438582420349 0.43273597955703735,0.4279118776321411 0.43214595317840576,0.42947983741760254 0.4315548539161682,0.43104755878448486 0.43096235394477844,0.4326155185699463 0.43036845326423645,0.4341830015182495 0.4297736585140228,0.43575048446655273 0.42917731404304504,0.4373178482055664 0.4285796880722046,0.43888527154922485 0.42798078060150146,0.4404522180557251 0.42738065123558044,0.44201886653900146 0.4267791211605072,0.4435858130455017 0.42617613077163696,0.4451521039009094 0.42557182908058167,0.4467184543609619 0.42496639490127563,0.4482842683792114 0.4243593215942383,0.4498499035835266 0.42375117540359497,0.4514155387878418 0.4231412708759308,0.4529804587364197 0.42253026366233826,0.45454537868499756 0.421917587518692,0.45610976219177246 0.42130380868911743,0.4576735496520996 0.4206884205341339,0.45923739671707153 0.4200715124607086,0.4608006477355957 0.4194532036781311,0.46236348152160645 0.4188334345817566,0.4639260768890381 0.41821199655532837,0.46548813581466675 0.4175895154476166,0.46704959869384766 0.4169653654098511,0.46861064434051514 0.41633957624435425,0.47017133235931396 0.41571244597435,0.47173142433166504 0.41508346796035767,0.47329097986221313 0.4144534468650818,0.4748498201370239 0.41382160782814026,0.47640836238861084 0.41318801045417786,0.4779662489891052 0.41255322098731995,0.4795234203338623 0.4119167625904083,0.4810802936553955 0.41127869486808777,0.48263585567474365 0.4106389284133911,0.48419129848480225 0.4099977910518646,0.485745906829834 0.4093548059463501,0.4872998595237732 0.40871021151542664,0.48885321617126465 0.40806418657302856,0.49040544033050537 0.4074162244796753,0.49195754528045654 0.4067665934562683,0.49350833892822266 0.40611541271209717,0.49505865573883057 0.40546247363090515,0.4966081380844116 0.404807984828949,0.49815666675567627 0.40415188670158386,0.49970459938049316 0.4034939706325531,0.5012514293193817 0.4028342664241791,0.5027974545955658 0.4021725654602051,0.5043428242206573 0.4015096426010132,0.5058870613574982 0.4008445739746094,0.5074303150177002 0.40017765760421753,0.5089730024337769 0.39950916171073914,0.5105144083499908 0.3988386392593384,0.5120549499988556 0.398166686296463,0.5135945677757263 0.39749273657798767,0.5151330232620239 0.39681681990623474,0.5166705548763275 0.3961392343044281,0.5182071626186371 0.3954595923423767,0.5197426974773407 0.3947781026363373,0.5212768614292145 0.3940947651863098,0.5228101015090942 0.3934096097946167,0.5243424773216248 0.3927224576473236,0.5258735120296478 0.3920333683490753,0.5274034440517426 0.3913424015045166,0.5289322435855865 0.39064955711364746,0.5304599106311798 0.38995468616485596,0.5319863557815552 0.3892576992511749,0.5335116982460022 0.3885588049888611,0.5350359380245209 0.3878578245639801,0.5365586876869202 0.38715502619743347,0.5380801856517792 0.38645005226135254,0.5396007001399994 0.385743111371994,0.5411196053028107 0.38503414392471313,0.5426374673843384 0.3843227028846741,0.544154167175293 0.3836098611354828,0.5456691384315491 0.382894366979599,0.5471831560134888 0.3821769654750824,0.5486957132816315 0.38145753741264343,0.5502069592475891 0.38073569536209106,0.5517167150974274 0.38001203536987305,0.5532252490520477 0.37928590178489685,0.5547323822975159 0.3785577118396759,0.5562379956245422 0.37782758474349976,0.5577423274517059 0.37709492444992065,0.5592450797557831 0.3763601779937744,0.5607463717460632 0.3756231367588043,0.5622462928295135 0.3748840093612671,0.5637448728084564 0.37414243817329407,0.5652419924736023 0.3733985424041748,0.5667374134063721 0.3726526200771332,0.5682313740253448 0.3719044029712677,0.5697237849235535 0.3711535334587097,0.571214884519577 0.37040048837661743,0.5727043151855469 0.3696453273296356,0.574192225933075 0.3688875734806061,0.5756785273551941 0.36812761425971985,0.5771632492542267 0.3673652112483978,0.5786466002464294 0.3666002154350281,0.5801281929016113 0.36583322286605835,0.5816082656383514 0.3650636374950409,0.5830863416194916 0.3642914891242981,0.5845631659030914 0.36351704597473145,0.5860385894775391 0.36274006962776184,0.5875121355056763 0.3619609475135803,0.588983952999115 0.361178994178772,0.5904542505741119 0.36039456725120544,0.5919226408004761 0.3596077859401703,0.5933897495269775 0.35881856083869934,0.594855010509491 0.3580267131328583,0.5963184237480164 0.3572322428226471,0.5977806150913239 0.35643520951271057,0.5992406010627747 0.35563576221466064,0.6006990075111389 0.354833722114563,0.6021557748317719 0.35402899980545044,0.6036108434200287 0.35322174429893494,0.6050642728805542 0.3524121046066284,0.6065155565738678 0.35159966349601746,0.6079655587673187 0.35078462958335876,0.6094136834144592 0.3499671220779419,0.6108600795269012 0.34914663434028625,0.6123046278953552 0.3483240008354187,0.6137474179267883 0.3474982976913452,0.6151885092258453 0.3466699421405792,0.6166278421878815 0.3458389937877655,0.6180654764175415 0.3450052738189697,0.6195012629032135 0.3441689908504486,0.6209351718425751 0.343330055475235,0.6223671436309814 0.3424886167049408,0.6237975656986237 0.34164392948150635,0.6252261698246002 0.34079673886299133,0.6266529560089111 0.33994704484939575,0.6280779242515564 0.33909448981285095,0.6295010447502136 0.33823898434638977,0.6309224367141724 0.337380975484848,0.6323419809341431 0.33652013540267944,0.6337596476078033 0.33565667271614075,0.6351754665374756 0.33479028940200806,0.6365895867347717 0.33392098546028137,0.6380018591880798 0.33304905891418457,0.639412522315979 0.3321743905544281,0.6408209800720215 0.3312969207763672,0.6422274112701416 0.3304167687892914,0.6436325311660767 0.32953357696533203,0.6450357139110565 0.32864776253700256,0.6464369893074036 0.3277590870857239,0.6478363871574402 0.3268676698207855,0.6492341160774231 0.3259734511375427,0.6506298184394836 0.3250763416290283,0.6520238220691681 0.3241764307022095,0.6534157991409302 0.32327374815940857,0.6548061966896057 0.32236817479133606,0.656194657087326 0.32145994901657104,0.6575810015201569 0.32054877281188965,0.6589658856391907 0.3196348547935486,0.6603487432003021 0.3187180757522583,0.6617298424243927 0.3177984058856964,0.6631090641021729 0.3168761432170868,0.664486289024353 0.315950870513916,0.6658617854118347 0.31502288579940796,0.6672355532646179 0.3140919804573059,0.6686074435710907 0.3131583631038666,0.6699775755405426 0.3122219443321228,0.6713455617427826 0.3112826943397522,0.672711968421936 0.31034064292907715,0.6740765571594238 0.30939552187919617,0.6754392683506012 0.30844810605049133,0.6768000423908234 0.3074977397918701,0.6781589388847351 0.30654439330101013,0.6795161962509155 0.3055882751941681,0.6808714866638184 0.3046293258666992,0.6822251677513123 0.30366796255111694,0.6835766732692719 0.30270352959632874,0.684926450252533 0.301736444234848,0.686274379491806 0.30076637864112854,0.6876208186149597 0.2997937798500061,0.6889651715755463 0.29881829023361206,0.6903077065944672 0.29784026741981506,0.6916482448577881 0.2968592643737793,0.6929872035980225 0.29587554931640625,0.6943244934082031 0.29488909244537354,0.6956595182418823 0.29390010237693787,0.6969931721687317 0.29290837049484253,0.6983246207237244 0.29191383719444275,0.6996545195579529 0.2909165918827057,0.7009824514389038 0.2899167835712433,0.7023084759712219 0.28891390562057495,0.7036328315734863 0.28790879249572754,0.7049552202224731 0.28690075874328613,0.706275999546051 0.2858901917934418,0.7075948715209961 0.2848769426345825,0.7089118957519531 0.2838608920574188,0.7102270126342773 0.2828422486782074,0.7115405797958374 0.28182122111320496,0.7128518223762512 0.2807973027229309,0.7141616344451904 0.27977102994918823,0.7154696881771088 0.2787419259548187,0.71677565574646 0.2777102291584015,0.7180798053741455 0.27667608857154846,0.719382107257843 0.2756391763687134,0.7206825613975525 0.2745998203754425,0.7219814658164978 0.2735576629638672,0.7232782542705536 0.27251332998275757,0.7245733141899109 0.27146607637405396,0.7258663177490234 0.2704165577888489,0.7271575033664703 0.2693643867969513,0.7284470200538635 0.2683095335960388,0.7297345399856567 0.26725226640701294,0.7310203015804291 0.266192764043808,0.7323038578033447 0.26513034105300903,0.7335857450962067 0.2640654146671295,0.734865665435791 0.262998104095459,0.7361439764499664 0.26192834973335266,0.7374200820922852 0.2608562111854553,0.7386942505836487 0.25978124141693115,0.7399665117263794 0.2587038278579712,0.7412369251251221 0.257624089717865,0.7425051927566528 0.25654175877571106,0.7437718510627747 0.25545695424079895,0.7450362145900726 0.2543696463108063,0.7462987005710602 0.2532798647880554,0.7475591897964478 0.25218772888183594,0.7488177120685577 0.25109297037124634,0.7500742375850677 0.2499959021806717,0.7513283789157867 0.24889598786830902,0.7525808215141296 0.2477937787771225,0.7538309842348099 0.24668903648853302,0.7550791651010513 0.24558167159557343,0.7563254833221436 0.24447204172611237,0.7575691491365433 0.2433597296476364,0.7588109374046326 0.24224494397640228,0.7600505948066711 0.24112747609615326,0.7612878978252411 0.24000750482082367,0.7625232040882111 0.23888511955738068,0.7637559920549393 0.23776017129421234,0.7649867385625839 0.23663248121738434,0.7662150710821152 0.23550213873386383,0.7674411684274673 0.23436932265758514,0.7686648815870285 0.23323358595371246,0.7698863297700882 0.23209567368030548,0.7711048722267151 0.23095472157001495,0.7723214030265808 0.22981120645999908,0.7735354751348495 0.22866477072238922,0.7747469991445541 0.22751568257808685,0.775955855846405 0.2263638824224472,0.7771621197462082 0.22520925104618073,0.7783658802509308 0.22405169904232025,0.7795669436454773 0.22289134562015533,0.7807652652263641 0.22172822058200836,0.7819609940052032 0.22056201100349426,0.7831536531448364 0.21939294040203094,0.7843436002731323 0.21822063624858856,0.785530686378479 0.21704532206058502,0.7867148518562317 0.21586675941944122,0.7878961712121964 0.21468564867973328,0.7890741229057312 0.21350082755088806,0.7902491986751556 0.2123129516839981,0.7914211452007294 0.21112172305583954,0.7925897538661957 0.20992712676525116,0.7937552034854889 0.2087293565273285,0.7949172109365463 0.20752790570259094,0.7960759997367859 0.20632299780845642,0.7972311675548553 0.20511451363563538,0.7983828783035278 0.20390252768993378,0.7995311319828033 0.2026868611574173,0.8006752878427505 0.20146721601486206,0.801816001534462 0.20024387538433075,0.8029528558254242 0.1990164965391159,0.804085910320282 0.19778524339199066,0.8052148818969727 0.19655007123947144,0.8063397109508514 0.19531048834323883,0.8074605017900467 0.19406691193580627,0.8085769712924957 0.19281890988349915,0.8096892535686493 0.1915666162967682,0.8107969462871552 0.19030985236167908,0.8119001686573029 0.18904851377010345,0.8129986524581909 0.18778261542320251,0.8140925765037537 0.18651175498962402,0.8151816129684448 0.18523621559143066,0.8162656873464584 0.18395577371120453,0.8173448592424393 0.18267056345939636,0.8184186071157455 0.1813795417547226,0.8194872736930847 0.18008381128311157,0.8205505013465881 0.17878255248069763,0.821608155965805 0.17747601866722107,0.8226602673530579 0.17616385221481323,0.8237064629793167 0.17484597861766815,0.8247467577457428 0.17352226376533508,0.8257812857627869 0.17219284176826477,0.8268094062805176 0.1708572953939438,0.8278312087059021 0.16951601207256317,0.8288464397192001 0.16816817224025726,0.8298551440238953 0.16681407392024994,0.8308573663234711 0.16545350849628448,0.8318523317575455 0.16408637166023254,0.8328401893377304 0.16271260380744934,0.8338209837675095 0.16133223474025726,0.8347942680120468 0.1599447876214981,0.8357601016759872 0.15855039656162262,0.8367179483175278 0.15714849531650543,0.837668165564537 0.15573997795581818,0.8386100381612778 0.15432387590408325,0.8395437002182007 0.1529000848531723,0.8404690772294998 0.15146896243095398,0.8413855582475662 0.15003003180027008,0.8422932177782059 0.14858363568782806,0.8431917726993561 0.14712917804718018,0.8440811634063721 0.14566664397716522,0.8449609726667404 0.1441960483789444,0.8458312898874283 0.1427173912525177,0.8466916382312775 0.14123058319091797,0.8475417643785477 0.13973531126976013,0.8483816534280777 0.13823162019252777,0.8492111563682556 0.13671967387199402,0.8500295728445053 0.13519904017448425,0.8508371561765671 0.1336698681116104,0.8516335338354111 0.13213230669498444,0.8524182587862015 0.13058580458164215,0.8531913757324219 0.12903065979480743,0.8539525717496872 0.12746676802635193,0.854701578617096 0.1258942186832428,0.8554379940032959 0.12431296706199646,0.8561617136001587 0.12272319197654724,0.8568724542856216 0.12112438678741455,0.8575699776411057 0.11951696872711182,0.8582540452480316 0.11790098249912262,0.858924463391304 0.11627648770809174,0.8595805913209915 0.11464338004589081,0.8602225482463837 0.11300194263458252,0.8608500063419342 0.11135199666023254,0.861462727189064 0.10969430208206177,0.8620600551366806 0.1080283522605896,0.8626421391963959 0.10635457932949066,0.8632085174322128 0.10467292368412018,0.8637591898441315 0.10298372805118561,0.8642933219671249 0.10128724575042725,0.8648111820220947 0.09958402812480927,0.8653121888637543 0.09787385165691376,0.8657961040735245 0.09615689516067505,0.8662626296281815 0.09443390369415283,0.8667116463184357 0.092705138027668,0.8671427071094513 0.09097100794315338,0.8675555437803268 0.08923140168190002,0.8679500818252563 0.08748701214790344,0.868325799703598 0.08573834598064423,0.868682473897934 0.0839858204126358,0.8690199702978134 0.08223021030426025,0.8693376779556274 0.08047151565551758,0.8696358948945999 0.07871071249246597,0.8699140101671219 0.0769483894109726,0.8701716363430023 0.07518449425697327,0.8704087883234024 0.07342099398374557,0.8706251233816147 0.07165700942277908,0.8708202242851257 0.06989431381225586,0.8709942996501923 0.06813317537307739,0.8711466491222382 0.06637455523014069,0.8712772727012634 0.06461958587169647,0.8713860362768173 0.06286852806806564,0.8714724630117416 0.06112296134233475,0.87153659760952 0.05938293784856796,0.8715782463550568 0.05764974653720856,0.8715970665216446 0.055924639105796814,0.8715930879116058 0.05420864373445511,0.871565967798233 0.052502505481243134,0.871515542268753 0.05080720782279968,0.8714419305324554 0.04912421107292175,0.8713446408510208 0.047454915940761566,0.8712238520383835 0.04579969495534897,0.8710793554782867 0.04416058957576752,0.8709110468626022 0.042538151144981384,0.8707189410924911 0.04093368351459503,0.8705030232667923 0.03934874385595322,0.8702631294727325 0.03778491169214249,0.8699992299079895 0.03624291718006134,0.8697113543748856 0.034724339842796326,0.8693995922803879 0.033230654895305634,0.8690639287233353 0.03176327049732208,0.8687044680118561 0.03032330609858036,0.8683211505413055 0.028912300243973732,0.8679141998291016 0.02753177098929882,0.8674835860729218 0.02618277631700039,0.8670296669006348 0.0248671043664217,0.8665522634983063 0.023586219176650047,0.8660519868135452 0.022341052070260048,0.8655284941196442 0.021133439615368843,0.864982545375824 0.01996474526822567,0.8644141256809235 0.01883613131940365,0.8638235181570053 0.017749061807990074,0.8632110804319382 0.016705075278878212,0.8625769317150116 0.015705103054642677,0.8619216680526733 0.014750486239790916,0.8612453043460846 0.013842863962054253,0.8605487197637558 0.012983081862330437,0.8598320782184601 0.012172525748610497,0.8590957522392273 0.01141238771378994,0.8583402633666992 0.010703342035412788,0.8575661033391953 0.010046934708952904,0.8567737191915512 0.009443974122405052,0.8559637665748596 0.00889519788324833,0.8551366776227951 0.008401749655604362,0.8542933613061905 0.007964285090565681,0.8534339964389801 0.007583571597933769,0.8525592386722565 0.007260577753186226,0.8516702204942703 0.006995243951678276,0.8507673144340515 0.006788836792111397,0.8498511016368866 0.006641281768679619,0.8489222228527069 0.006553122773766518,0.8479817062616348 0.006524866446852684,0.84703029692173 0.00655633769929409,0.8460686802864075 0.006647976115345955,0.8450975120067596 0.006799789145588875,0.8441178649663925 0.007011642679572105,0.8431302309036255 0.007283234968781471,0.842136025428772 0.00761478953063488,0.841135635972023 0.008005676791071892,0.8401297330856323 0.008455665782094002,0.8391196429729462 0.008964339271187782,0.8381059914827347 0.00953117199242115,0.8370896279811859 0.010155199095606804,0.8360718041658401 0.010836197063326836,0.8350531458854675 0.01157308928668499,0.8340344876050949 0.012365179136395454,0.8330168128013611 0.013211572542786598,0.8320010900497437 0.014110850170254707,0.8309881538152695 0.015062632039189339,0.829978883266449 0.016065483912825584,0.8289740681648254 0.017118172720074654,0.8279745876789093 0.01821948029100895,0.8269816339015961 0.019367950037121773,0.8259959369897842 0.02056260220706463,0.8250180780887604 0.02180187962949276,0.8240490704774857 0.02308444119989872,0.8230898380279541 0.024408841505646706,0.8221409618854523 0.025773407891392708,0.8212034404277802 0.027177000418305397,0.8202778249979019 0.028617853298783302,0.8193648457527161 0.030094509944319725,0.8184655159711838 0.0316053107380867,0.8175802230834961 0.033148542046546936,0.8167098760604858 0.03472305089235306,0.815855085849762 0.036326900124549866,0.8150162994861603 0.03795897960662842,0.8141940832138062 0.039617471396923065,0.8133889436721802 0.04130048304796219,0.8126018792390823 0.043007224798202515,0.8118327558040619 0.04473572224378586,0.8110825419425964 0.04648452252149582,0.8103514909744263 0.04825209826231003,0.8096399754285812 0.0500374510884285,0.8089482486248016 0.05183862894773483,0.808276891708374 0.05365484952926636,0.8076262176036835 0.05548449605703354,0.8069960474967957 0.05732619762420654,0.806387186050415 0.0591789186000824,0.8057994246482849 0.06104106456041336,0.8052333146333694 0.06291195005178452,0.8046886622905731 0.06479033082723618,0.804165780544281 0.06667472422122955,0.8036647140979767 0.06856472045183182,0.8031853437423706 0.07045895606279373,0.8027279078960419 0.07235665619373322,0.8022922575473785 0.07425708323717117,0.8018783628940582 0.07615919411182404,0.8014863431453705 0.07806221395730972,0.801115870475769 0.07996495068073273,0.8007669895887375 0.08186750113964081,0.800439327955246 0.08376868069171906,0.800133228302002 0.08566834777593613,0.7998476624488831 0.08756554126739502,0.7995830923318863 0.08945954591035843,0.7993391752243042 0.09135053306818008,0.799115464091301 0.09323760122060776,0.7989117503166199 0.09512050449848175,0.7987276911735535 0.09699881076812744,0.7985632717609406 0.09887182712554932,0.798417717218399 0.10073988139629364,0.7982909083366394 0.10260219871997833,0.7981824427843094 0.10445906221866608,0.7980920672416687 0.10631003975868225,0.7980192303657532 0.10815472900867462,0.7979638576507568 0.10999315977096558,0.7979251146316528 0.11182557046413422,0.7979028224945068 0.1136513501405716,0.7978965938091278 0.11547033488750458,0.7979057133197784 0.11728300154209137,0.7979300022125244 0.11908891797065735,0.7979691028594971 0.12088841199874878,0.7980222404003143 0.1226813942193985,0.7980891168117523 0.12446777522563934,0.7981696724891663 0.12624768912792206,0.7982628643512726 0.12802085280418396,0.798368513584137 0.1297878921031952,0.7984861880540848 0.13154853880405426,0.7986153662204742 0.1333029866218567,0.7987556159496307 0.13505126535892487,0.7989064455032349 0.13679350912570953,0.7990674376487732 0.1385299265384674,0.7992381453514099 0.14026084542274475,0.7994182705879211 0.14198601245880127,0.7996073514223099 0.14370585978031158,0.7998046278953552 0.145420104265213,0.8000098764896393 0.1471293866634369,0.8002229630947113 0.1488332748413086,0.8004429191350937 0.15053263306617737,0.8006698489189148 0.15222731232643127,0.8009031713008881 0.15391720831394196,0.8011423051357269 0.1556028425693512,0.8013870567083359 0.15728448331356049,0.8016370236873627 0.15896181762218475,0.8018920719623566 0.16063526272773743,0.8021514117717743 0.16230472922325134,0.8024149537086487 0.16397075355052948,0.8026822507381439 0.16563348472118378,0.8029531985521317 0.1672927886247635,0.8032272011041641 0.16894912719726562,0.8035042136907578 0.17060217261314392,0.8037836849689484 0.1722525954246521,0.8040653765201569 0.1739005446434021,0.8043491542339325 0.17554575204849243,0.8046347200870514 0.17718851566314697,0.8049216270446777 0.1788291484117508,0.8052100390195847 0.18046745657920837,0.8054992854595184 0.18210400640964508,0.8057893514633179 0.18373866379261017,0.8060800582170486 0.18537156283855438,0.8063710629940033 0.1870027333498001,0.8066621720790863 0.1886327713727951,0.8069535791873932 0.19026139378547668,0.8072446584701538 0.19188867509365082,0.8075355887413025 0.19351474940776825,0.8078258633613586 0.19513995945453644,0.808115690946579 0.19676421582698822,0.8084047436714172 0.19838763773441315,0.8086927980184555 0.2000105082988739,0.8089802861213684 0.20163275301456451,0.8092665523290634 0.2032545953989029,0.8095516562461853 0.20487578213214874,0.8098356425762177 0.20649701356887817,0.8101184070110321 0.2081175297498703,0.8103998601436615 0.20973822474479675,0.8106799721717834 0.21135878562927246,0.81095851957798 0.212979257106781,0.8112358748912811 0.21460022032260895,0.8115116655826569 0.21622122824192047,0.8117861151695251 0.2178424447774887,0.8120590895414352 0.21946409344673157,0.8123304843902588 0.22108589112758636,0.8126004636287689 0.22270797193050385,0.8128690421581268 0.22433103621006012,0.8131362795829773 0.22595451772212982,0.8134020864963531 0.227578803896904,0.8136665523052216 0.2292035073041916,0.8139296472072601 0.23082910478115082,0.814191535115242 0.2324555367231369,0.8144523203372955 0.23408286273479462,0.814711794257164 0.23571078479290009,0.8149701356887817 0.2373400181531906,0.8152275532484055 0.2389698475599289,0.815483883023262 0.24060092866420746,0.8157397210597992 0.24223320186138153,0.8159945011138916 0.24386651813983917,0.8162485212087631 0.24550075829029083,0.816501796245575 0.24713633954524994,0.8167547285556793 0.24877317249774933,0.8170070946216583 0.25041133165359497,0.8172591030597687 0.2520502507686615,0.8175108879804611 0.2536906898021698,0.8177622407674789 0.2553326189517975,0.8180136978626251 0.25697579979896545,0.8182649910449982 0.25862035155296326,0.8185165673494339 0.2602662146091461,0.8187681436538696 0.26191359758377075,0.81902015209198 0.2635619640350342,0.819272443652153 0.2652120292186737,0.8195250332355499 0.26686331629753113,0.8197783827781677 0.26851606369018555,0.8200321942567825 0.2701703906059265,0.8202867060899734 0.271825909614563,0.8205422013998032 0.2734830975532532,0.8207984417676926 0.27514147758483887,0.8210558593273163 0.2768014967441559,0.8213143050670624 0.27846285700798035,0.8215736746788025 0.28012537956237793,0.821834608912468 0.28178930282592773,0.822096660733223 0.2834549844264984,0.822360098361969 0.2851218283176422,0.8226251751184464 0.28678998351097107,0.8228916823863983 0.2884596586227417,0.8231596499681473 0.2901306450366974,0.8234294354915619 0.29180294275283813,0.8237009793519974 0.2934767007827759,0.8239741325378418 0.29515135288238525,0.8242490738630295 0.29682740569114685,0.8245261013507843 0.2985045909881592,0.8248049467802048 0.3001832664012909,0.8250859826803207 0.30186325311660767,0.8253689557313919 0.3035441040992737,0.8256538808345795 0.30522608757019043,0.8259410262107849 0.3069092929363251,0.8262302279472351 0.3085937201976776,0.8265216946601868 0.31027916073799133,0.8268153369426727 0.31196537613868713,0.8271111398935318 0.31365254521369934,0.8274091184139252 0.3153408169746399,0.8277094811201096 0.3170303404331207,0.8280122578144073 0.31872043013572693,0.8283172398805618 0.32041144371032715,0.8286243230104446 0.3221030831336975,0.8289338648319244 0.32379579544067383,0.8292458653450012 0.3254892826080322,0.8295600116252899 0.3271831274032593,0.8298763334751129 0.3288779854774475,0.8301951885223389 0.33057302236557007,0.8305163681507111 0.33226916193962097,0.830839678645134 0.33396580815315247,0.8311655223369598 0.33566275238990784,0.8314933627843857 0.3373604714870453,0.8318237364292145 0.33905845880508423,0.832156240940094 0.34075674414634705,0.832490861415863 0.3424552381038666,0.8328276574611664 0.3441545069217682,0.8331667631864548 0.345853716135025,0.8335080593824387 0.34755364060401917,0.833851546049118 0.34925326704978943,0.8341969400644302 0.3509533703327179,0.834544450044632 0.3526535630226135,0.8348941802978516 0.35435372591018677,0.8352457880973816 0.35605379939079285,0.8355992138385773 0.35775449872016907,0.8359548002481461 0.3594542443752289,0.8363122195005417 0.3611547648906708,0.8366715312004089 0.362854927778244,0.8370328098535538 0.3645550310611725,0.8373958468437195 0.36625462770462036,0.8377604186534882 0.36795422434806824,0.8381269574165344 0.36965399980545044,0.8384952396154404 0.37135326862335205,0.8388648927211761 0.3730519413948059,0.8392361998558044 0.3747502863407135,0.8396092653274536 0.3764486312866211,0.8399838656187057 0.3781464993953705,0.8403598368167877 0.3798440098762512,0.8407373130321503 0.381540983915329,0.8411161750555038 0.3832373023033142,0.8414963632822037 0.3849334716796875,0.8418778777122498 0.3866288959980011,0.8422607630491257 0.3883238434791565,0.8426449298858643 0.39001816511154175,0.8430303186178207 0.3917117118835449,0.84341661632061 0.39340487122535706,0.8438043743371964 0.3950974643230438,0.8441929817199707 0.3967893719673157,0.8445828258991241 0.39848071336746216,0.844973549246788 0.40017077326774597,0.8453652262687683 0.4018603265285492,0.845757931470871 0.4035489857196808,0.8461516201496124 0.4052373766899109,0.8465460687875748 0.4069247841835022,0.8469412624835968 0.4086114466190338,0.8473375290632248 0.4102970063686371,0.8477343022823334 0.4119817912578583,0.8481321930885315 0.4136660695075989,0.8485301434993744 0.41534918546676636,0.8489294797182083 0.4170314073562622,0.8493289947509766 0.41871291399002075,0.8497292697429657 0.420393168926239,0.850130096077919 0.4220728278160095,0.8505314588546753 0.4237516224384308,0.8509334623813629 0.42542949318885803,0.8513359576463699 0.4271063506603241,0.8517387062311172 0.428782194852829,0.8521421402692795 0.4304572343826294,0.8525459170341492 0.43213146924972534,0.852950245141983 0.4338042140007019,0.8533546775579453 0.435476154088974,0.8537597805261612 0.4371473789215088,0.8541650027036667 0.4388176202774048,0.8545707166194916 0.4404866695404053,0.8549765944480896 0.44215506315231323,0.8553829193115234 0.44382205605506897,0.8557893335819244 0.44548872113227844,0.8561961054801941 0.4471540153026581,0.8566030412912369 0.4488178789615631,0.8570101708173752 0.4504813849925995,0.8574177026748657 0.45214349031448364,0.8578253090381622 0.45380496978759766,0.8582331538200378 0.45546549558639526,0.8586412072181702 0.4571250379085541,0.8590494245290756 0.45878374576568604,0.8594577312469482 0.4604410231113434,0.8598659783601761 0.4620976150035858,0.8602746576070786 0.4637531340122223,0.8606834560632706 0.46540769934654236,0.8610923588275909 0.4670616686344147,0.8615013360977173 0.4687143564224243,0.8619103133678436 0.47036638855934143,0.8623195588588715 0.47201743721961975,0.8627289533615112 0.473667174577713,0.863138422369957 0.47531649470329285,0.8635480403900146 0.4769645631313324,0.863957554101944 0.4786119759082794,0.8643674105405807 0.4802583158016205,0.8647771626710892 0.4819040596485138,0.8651871085166931 0.48354867100715637,0.8655971139669418 0.48519280552864075,0.8660073280334473 0.48683562874794006,0.8664175570011139 0.4884778559207916,0.8668280094861984 0.49011918902397156,0.8672384917736053 0.49175968766212463,0.8676491379737854 0.49339911341667175,0.8680597841739655 0.4950379431247711,0.8684705942869186 0.49667593836784363,0.8688815534114838 0.49831339716911316,0.8692927360534668 0.49995002150535583,0.8697039484977722 0.5015856027603149,0.8701154142618179 0.5032205581665039,0.8705268204212189 0.5048549175262451,0.870938628911972 0.5064884424209595,0.8713505119085312 0.5081210136413574,0.8717624992132187 0.5097530484199524,0.8721747994422913 0.5113840103149414,0.8725872039794922 0.5130148530006409,0.8729997873306274 0.5146450400352478,0.8734125643968582 0.5162742733955383,0.8738256245851517 0.5179027915000916,0.8742390424013138 0.5195307731628418,0.8746524006128311 0.5211582183837891,0.8750663176178932 0.5227843523025513,0.8754802495241165 0.5244107842445374,0.8758945241570473 0.5260360836982727,0.8763090819120407 0.527660608291626,0.8767237737774849 0.5292850136756897,0.8771390095353127 0.5309088826179504,0.8775545433163643 0.5325316786766052,0.8779702633619308 0.5341542363166809,0.8783864229917526 0.5357761383056641,0.8788028731942177 0.5373976230621338,0.879219613969326 0.5390182733535767,0.8796366900205612 0.5406386256217957,0.880054235458374 0.5422585606575012,0.8804722130298615 0.5438778400421143,0.8808905109763145 0.5454965829849243,0.88130933791399 0.5471149682998657,0.8817285150289536 0.5487329363822937,0.8821481764316559 0.5503504276275635,0.8825680762529373 0.5519676208496094,0.8829885423183441 0.553583562374115,0.8834095224738121 0.5551999807357788,0.8838310465216637 0.5568155646324158,0.8842529430985451 0.558431088924408,0.8846754506230354 0.5600459575653076,0.8850984424352646 0.5616602897644043,0.8855218514800072 0.5632742643356323,0.8859458416700363 0.5648879408836365,0.8863704651594162 0.5665013194084167,0.8867955580353737 0.5681142210960388,0.8872212246060371 0.5697267651557922,0.8876475319266319 0.5713391900062561,0.8880743235349655 0.5729511976242065,0.8885017782449722 0.5745627880096436,0.8889299109578133 0.5761743783950806,0.8893585652112961 0.5777855515480042,0.889787957072258 0.5793959498405457,0.8902179375290871 0.5810064077377319,0.8906484618782997 0.5826166868209839,0.8910796269774437 0.5842269062995911,0.8915116265416145 0.5858362317085266,0.8919442519545555 0.5874456167221069,0.892377533018589 0.5890550017356873,0.8928115963935852 0.5906637907028198,0.8932464122772217 0.5922726392745972,0.8936816304922104 0.5938810706138611,0.8941177427768707 0.5954895615577698,0.8945545256137848 0.5970976948738098,0.8949922621250153 0.5987056493759155,0.8954305052757263 0.6003133654594421,0.8958696499466896 0.6019209623336792,0.8963093087077141 0.6035284399986267,0.8967499509453773 0.6051357984542847,0.8971913158893585 0.6067430973052979,0.897633507847786 0.6083500981330872,0.8980763256549835 0.6099568605422974,0.8985201120376587 0.6115634441375732,0.898964412510395 0.6131702661514282,0.899409756064415 0.6147770881652832,0.8998557403683662 0.6163838505744934,0.9003027677536011 0.617990255355835,0.9007503986358643 0.6195964813232422,0.9011988788843155 0.6212030649185181,0.9016481637954712 0.6228094696998596,0.902098037302494 0.624415397644043,0.90254907310009 0.626021683216095,0.9030007869005203 0.6276276707649231,0.9034533798694611 0.6292340755462646,0.9039066582918167 0.6308402419090271,0.9043607860803604 0.6324464678764343,0.9048159271478653 0.6340527534484863,0.9052718430757523 0.6356589198112488,0.9057283625006676 0.6372650265693665,0.9061859101057053 0.6388712525367737,0.9066441804170609 0.6404774188995361,0.9071032628417015 0.6420841813087463,0.9075632989406586 0.6436904668807983,0.908023975789547 0.645297110080719,0.9084856659173965 0.6469038128852844,0.9089482799172401 0.6485106945037842,0.9094113707542419 0.6501172780990601,0.9098755270242691 0.6517242193222046,0.91034035384655 0.6533309817314148,0.9108060449361801 0.6549383401870728,0.9112723767757416 0.656545877456665,0.9117396771907806 0.6581533551216125,0.9122078642249107 0.6597608327865601,0.9126767516136169 0.6613689064979553,0.913146436214447 0.6629772186279297,0.9136167466640472 0.6645850539207458,0.9140880852937698 0.6661933064460754,0.9145600572228432 0.6678022742271423,0.9150327518582344 0.6694106459617615,0.9155062586069107 0.6710196733474731,0.9159805253148079 0.6726290583610535,0.9164555221796036 0.6742388010025024,0.9169313386082649 0.6758484244346619,0.9174075871706009 0.6774584054946899,0.9178848415613174 0.6790686249732971,0.9183627292513847 0.6806793212890625,0.9188414141535759 0.6822900772094727,0.9193206280469894 0.6839014291763306,0.9198006838560104 0.6855126619338989,0.9202812910079956 0.6871243715286255,0.9207624420523643 0.6887366771697998,0.9212444797158241 0.6903490424156189,0.9217270910739899 0.691961944103241,0.922210231423378 0.6935749650001526,0.9226940721273422 0.6951885223388672,0.9231785014271736 0.6968019604682922,0.9236635267734528 0.6984164118766785,0.9241491258144379 0.7000311017036438,0.9246353060007095 0.7016457915306091,0.9251219928264618 0.7032612562179565,0.9256092607975006 0.7048770189285278,0.926097109913826 0.7064933776855469,0.926585391163826 0.7081102132797241,0.9270741045475006 0.7097270488739014,0.9275633916258812 0.7113440632820129,0.9280530214309692 0.7129619121551514,0.9285432249307632 0.7145806550979614,0.9290339946746826 0.716199517250061,0.9295251220464706 0.7178186774253845,0.93001639097929 0.7194382548332214,0.9305083230137825 0.7210586071014404,0.9310004711151123 0.7226792573928833,0.9314930960536003 0.7243003845214844,0.9319859370589256 0.7259222865104675,0.9324791133403778 0.7275441884994507,0.9329725801944733 0.7291666865348816,0.933466337621212 0.7307900786399841,0.9339604303240776 0.7324137091636658,0.9344548508524895 0.7340381741523743,0.9349492192268372 0.7356626391410828,0.9354438781738281 0.7372879981994629,0.9359388947486877 0.7389140725135803,0.9364339113235474 0.7405402660369873,0.9369291067123413 0.7421671152114868,0.9374243319034576 0.7437944412231445,0.9379198178648949 0.7454224824905396,0.9384154379367828 0.7470510601997375,0.938910961151123 0.7486801147460938,0.9394064992666245 0.750309944152832,0.939902052283287 0.7519398927688599,0.9403976872563362 0.7535704374313354,0.9408934190869331 0.7552019953727722,0.941388800740242 0.756834089756012,0.9418843165040016 0.758466362953186,0.9423796385526657 0.7600992918014526,0.942874863743782 0.7617331147193909,0.9433699324727058 0.7633671760559082,0.9438648223876953 0.7650017738342285,0.944359727203846 0.7666376233100891,0.9448540732264519 0.7682730555534363,0.9453484117984772 0.7699092030525208,0.9458422139286995 0.7715466022491455,0.9463359788060188 0.7731840014457703,0.9468295127153397 0.774822473526001,0.9473225399851799 0.7764608860015869,0.9478151574730873 0.7781002521514893,0.9483073949813843 0.7797403931617737,0.9487993195652962 0.7813807129859924,0.9492908343672752 0.7830213308334351,0.9497816562652588 0.7846630811691284,0.9502721130847931 0.7863048315048218,0.9507620185613632 0.7879475355148315,0.9512513056397438 0.7895904183387756,0.9517401903867722 0.7912344336509705,0.952228307723999 0.7928783297538757,0.9527157992124557 0.7945229411125183,0.9532027244567871 0.7961682081222534,0.9536890238523483 0.7978140711784363,0.9541744217276573 0.7994601726531982,0.95465899258852 0.8011065721511841,0.9551429748535156 0.802753746509552,0.9556261897087097 0.8044012188911438,0.9561085253953934 0.806049644947052,0.9565899968147278 0.807698130607605,0.9570705369114876 0.8093469738960266,0.9575501307845116 0.8109965324401855,0.9580288603901863 0.8126465678215027,0.9585066437721252 0.8142966032028198,0.9589833095669746 0.8159475326538086,0.9594589397311211 0.8175983428955078,0.9599335715174675 0.8192499279975891,0.960407204926014 0.82090163230896,0.9608794301748276 0.8225541114807129,0.961350828409195 0.8242066502571106,0.9618208706378937 0.8258596658706665,0.9622897431254387 0.8275126814842224,0.9627572298049927 0.8291661143302917,0.9632235243916512 0.8308203220367432,0.9636886119842529 0.8324745297431946,0.9641523510217667 0.8341287970542908,0.9646146893501282 0.8357832431793213,0.9650754854083061 0.8374384045600891,0.9655349627137184 0.8390935063362122,0.9659930542111397 0.8407488465309143,0.9664497077465057 0.8424041271209717,0.9669046029448509 0.8440601229667664,0.9673581272363663 0.8457158207893372,0.9678099006414413 0.8473718166351318,0.968260146677494 0.8490281105041504,0.9687089174985886 0.8506842255592346,0.9691558480262756 0.8523403406143188,0.969601072371006 0.8539965748786926,0.9700445085763931 0.8556531667709351,0.9704863652586937 0.8573095798492432,0.9709263145923615 0.8589658141136169,0.9713643342256546 0.8606218099594116,0.9718005955219269 0.8622785210609436,0.972234882414341 0.8639346957206726,0.9726673513650894 0.8655910491943359,0.9730977937579155 0.8672471642494202,0.9735262021422386 0.8689031004905701,0.9739526137709618 0.8705587983131409,0.9743770658969879 0.8722148537635803,0.9747994393110275 0.8738699555397034,0.9752194732427597 0.875525176525116,0.9756376072764397 0.8771800398826599,0.976053349673748 0.8788349628448486,0.976467102766037 0.8804892897605896,0.9768784791231155 0.8821437358856201,0.977287583053112 0.8837973475456238,0.9776945114135742 0.8854508399963379,0.9780989214777946 0.887103796005249,0.9785010144114494 0.8887562155723572,0.9789006188511848 0.8904085159301758,0.9792979285120964 0.8920602202415466,0.9796927198767662 0.8937115669250488,0.9800851047039032 0.895362138748169,0.9804749712347984 0.8970121741294861,0.980862133204937 0.8986617922782898,0.9812469407916069 0.9003106951713562,0.9816288948059082 0.9019590020179749,0.982008270919323 0.9036067724227905,0.9823850095272064 0.9052531719207764,0.9827589392662048 0.9068999886512756,0.9831302389502525 0.9085450768470764,0.9834987372159958 0.9101901650428772,0.9838643744587898 0.9118340015411377,0.9842270985245705 0.913476824760437,0.9845871925354004 0.9151190519332886,0.9849441647529602 0.9167605042457581,0.9852982759475708 0.9184008836746216,0.9856495037674904 0.9200400710105896,0.9859976395964622 0.9216786623001099,0.9863428920507431 0.9233162999153137,0.9866849705576897 0.9249525666236877,0.9870240613818169 0.9265881180763245,0.987360030412674 0.9282219409942627,0.9876928701996803 0.9298549294471741,0.9880224615335464 0.9314870238304138,0.988348938524723 0.9331177473068237,0.9886720329523087 0.9347472190856934,0.9889920949935913 0.9363751411437988,0.989308662712574 0.9380022287368774,0.9896220564842224 0.9396280646324158,0.989932082593441 0.9412522315979004,0.9902387857437134 0.9428752064704895,0.9905420616269112 0.9444963932037354,0.9908417761325836 0.9461163878440857,0.9911380931735039 0.9477346539497375,0.9914309084415436 0.9493513703346252,0.9917203709483147 0.9509671926498413,0.9920061603188515 0.9525807499885559,0.9922882989048958 0.9541929960250854,0.9925669804215431 0.9558036923408508,0.9928419515490532 0.9574129581451416,0.993113324046135 0.9590198397636414,0.9933809861540794 0.9606252312660217,0.9936449229717255 0.9622286558151245,0.9939050599932671 0.9638306498527527,0.9941615015268326 0.965430736541748,0.9944140985608101 0.9670289158821106,0.9946629554033279 0.9686249494552612,0.9949079900979996 0.9702193140983582,0.9951490312814713 0.9718117713928223,0.9953862726688385 0.9734022617340088,0.9956194832921028 0.9749904870986938,0.9958487451076508 0.9765766859054565,0.9960741028189659 0.9781607389450073,0.9962955489754677 0.9797427654266357,0.9965127855539322 0.9813226461410522,0.9967260360717773 0.9829002618789673,0.9969351962208748 0.98447585105896,0.9971402212977409 0.9860489368438721,0.9973411932587624 0.9876202344894409,0.9975380450487137 0.9891886711120605,0.9977306500077248 0.9907550811767578,0.9979189857840538 0.9923187494277954,0.9981031492352486 0.9938801527023315,0.9982830062508583 0.9954395294189453,0.9984586909413338 0.9969961643218994,0.9986300244927406 " fill="none" stroke="black" stroke-width="0.002"/>
</svg>
