<svg viewBox="0 0 1 1" xmlns="http://www.w3.org/2000/svg">
<polyline points="0.3542554974555969,0.09370571374893188 0.3541506826877594,0.09378725290298462 0.3539726138114929,0.09392571449279785 0.3536609709262848,0.09416794776916504 0.3531078100204468,0.09459781646728516 0.35213491320610046,0.09535348415374756 0.3504887521266937,0.09663188457489014 0.3478845953941345,0.09865355491638184 0.34411656856536865,0.10157817602157593 0.3391799330711365,0.10540920495986938 0.33330973982810974,0.10996377468109131 0.3268902599811554,0.11494392156600952 0.3203107416629791,0.12004780769348145 0.3138580918312073,0.12505298852920532 0.3076857328414917,0.12984049320220947 0.3018374443054199,0.13437676429748535 0.2962883412837982,0.13868093490600586 0.2909790575504303,0.14279931783676147 0.2858421802520752,0.14678418636322021 0.28081390261650085,0.15068519115447998 0.2758409082889557,0.15454363822937012 0.27088165283203125,0.15839195251464844 0.2659057378768921,0.16225355863571167 0.2608933448791504,0.16614413261413574 0.25583329796791077,0.17007219791412354 0.2507215738296509,0.17404115200042725 0.2455604523420334,0.17804908752441406 0.24035514891147614,0.18209224939346313 0.23511579632759094,0.18616271018981934 0.2298545092344284,0.19025123119354248 0.22458307445049286,0.19434881210327148 0.21931642293930054,0.19844400882720947 0.21406762301921844,0.20252680778503418 0.2088487297296524,0.20658808946609497 0.20367015898227692,0.2106199860572815 0.19854170083999634,0.21461516618728638 0.19346797466278076,0.21857041120529175 0.18845388293266296,0.22248214483261108 0.18349939584732056,0.22635120153427124 0.17860309779644012,0.23017889261245728 0.1737614870071411,0.23396873474121094 0.16896721720695496,0.23772728443145752 0.16421276330947876,0.24146145582199097 0.15948960185050964,0.24517881870269775 0.15478694438934326,0.24888938665390015 0.15009382367134094,0.25260335206985474 0.14540241658687592,0.256328821182251 0.14070287346839905,0.26007580757141113 0.135988250374794,0.26385265588760376 0.13125433027744293,0.2676659822463989 0.12649840116500854,0.27152180671691895 0.1217207983136177,0.2754243016242981 0.1169249415397644,0.27937597036361694 0.11211782693862915,0.28337717056274414 0.10730806738138199,0.2874276041984558 0.10250835120677948,0.29152458906173706 0.09773224592208862,0.29566502571105957 0.09299667179584503,0.2998441457748413 0.08831845223903656,0.3040573000907898 0.08371578902006149,0.30829954147338867 0.07920727878808975,0.3125654458999634 0.07481028139591217,0.3168507218360901 0.07054147124290466,0.3211520314216614 0.06641542166471481,0.32546669244766235 0.062444545328617096,0.3297940492630005 0.058636926114559174,0.3341361880302429 0.05499773845076561,0.3384968638420105 0.05152641981840134,0.3428838849067688 0.04821596294641495,0.3473089933395386 0.04505295678973198,0.35178864002227783 0.04201503470540047,0.3563457131385803 0.039072971791028976,0.3610077500343323 0.03618745878338814,0.3658097982406616 0.033311765640974045,0.3707926869392395 0.030395736917853355,0.3759998083114624 0.027388958260416985,0.3814738988876343 0.024252217262983322,0.3872472643852234 0.02097172662615776,0.39332813024520874 0.017578180879354477,0.39968281984329224 0.014164160005748272,0.406216561794281 0.010896308347582817,0.41276150941848755 0.007999072782695293,0.4190893769264221 0.005714131984859705,0.424951434135437 0.004235133994370699,0.4301462173461914 0.0036510175559669733,0.43458127975463867 0.003934221807867289,0.4382970929145813 0.004975096322596073,0.4414384365081787 0.006639975588768721,0.4441961646080017 0.008815653622150421,0.4467547535896301 0.011426100507378578,0.44926226139068604 0.014428514055907726,0.4518231749534607 0.01779998652637005,0.4545011520385742 0.02152344398200512,0.45732563734054565 0.02557767555117607,0.46029579639434814 0.029931310564279556,0.46338385343551636 0.034538812935352325,0.4665359854698181 0.03934451937675476,0.46967613697052 0.04428775981068611,0.4727094769477844 0.04931581765413284,0.4755324721336365 0.05439468100667,0.4780421257019043 0.0595189705491066,0.48014867305755615 0.0647134780883789,0.48178714513778687 0.07002150267362595,0.48292112350463867 0.07549041509628296,0.48354655504226685 0.08115195482969284,0.483684778213501 0.08701535314321518,0.4833758473396301 0.09306508302688599,0.48266738653182983 0.09927383065223694,0.481609046459198 0.10560763627290726,0.48024553060531616 0.11203786730766296,0.4786180257797241 0.11854206770658493,0.47676271200180054 0.12510564923286438,0.4747145175933838 0.13171721994876862,0.4725075364112854 0.13836881518363953,0.4701762795448303 0.14505158364772797,0.4677553176879883 0.15175330638885498,0.4652780294418335 0.15846103429794312,0.4627763032913208 0.1651580035686493,0.4602782726287842 0.1718268096446991,0.4578081965446472 0.1784522980451584,0.4553854465484619 0.18501777946949005,0.45302319526672363 0.19151099026203156,0.4507308602333069 0.19792185723781586,0.44851136207580566 0.20424504578113556,0.4463643431663513 0.21047762036323547,0.4442853331565857 0.21662145853042603,0.4422668218612671 0.2226816862821579,0.44029951095581055 0.22866535186767578,0.43837225437164307 0.23458313941955566,0.4364730715751648 0.24044659733772278,0.434589147567749 0.2462676614522934,0.43270814418792725 0.2520604431629181,0.43081724643707275 0.2578391432762146,0.42890506982803345 0.2636164426803589,0.426960289478302 0.26940473914146423,0.4249730110168457 0.2752154767513275,0.42293375730514526 0.2810596823692322,0.4208349585533142 0.28694450855255127,0.4186698794364929 0.2928771376609802,0.4164327383041382 0.2988608181476593,0.41412031650543213 0.3049001693725586,0.41172945499420166 0.3109939694404602,0.4092588424682617 0.31714195013046265,0.40670955181121826 0.32333844900131226,0.40408235788345337 0.3295803666114807,0.4013811945915222 0.33585989475250244,0.3986102342605591 0.34216830134391785,0.3957750201225281 0.3484967052936554,0.39288318157196045 0.3548344373703003,0.38994187116622925 0.361171692609787,0.3869607448577881 0.36749735474586487,0.3839492201805115 0.3738006055355072,0.38091784715652466 0.3800719082355499,0.3778766393661499 0.3863036632537842,0.3748365044593811 0.39248645305633545,0.3718082904815674 0.3986147940158844,0.368802547454834 0.40468522906303406,0.36582934856414795 0.4106939136981964,0.36289799213409424 0.4166412055492401,0.36001789569854736 0.42253023386001587,0.3571968674659729 0.4283638000488281,0.35444217920303345 0.4341467320919037,0.3517608642578125 0.43988892436027527,0.3491572141647339 0.4455983340740204,0.3466362953186035 0.4512876868247986,0.3442015051841736 0.45696890354156494,0.34185463190078735 0.4626551568508148,0.33959662914276123 0.46835964918136597,0.33742833137512207 0.4740968942642212,0.3353480100631714 0.4798801839351654,0.33335381746292114 0.4857204854488373,0.3314424157142639 0.49162933230400085,0.3296085596084595 0.497614324092865,0.3278459310531616 0.5036795139312744,0.3261476755142212 0.5098282098770142,0.324504017829895 0.5160574316978455,0.32290440797805786 0.5223613977432251,0.32133644819259644 0.5287280678749084,0.31978684663772583 0.5351437330245972,0.318240225315094 0.5415894389152527,0.31667912006378174 0.5480408072471619,0.31508708000183105 0.5544740557670593,0.31344544887542725 0.5608614087104797,0.31173568964004517 0.5671742558479309,0.30994027853012085 0.5733843445777893,0.30804139375686646 0.5794637203216553,0.30602431297302246 0.5853902697563171,0.3038746118545532 0.5911403894424438,0.30158334970474243 0.5966981053352356,0.2991408705711365 0.6020503044128418,0.2965441942214966 0.6071904897689819,0.29379189014434814 0.6121170520782471,0.29088765382766724 0.6168317794799805,0.2878364324569702 0.6213422417640686,0.28464990854263306 0.6256617307662964,0.28133851289749146 0.6298046708106995,0.27791738510131836 0.6337904334068298,0.27440303564071655 0.6376402974128723,0.27081233263015747 0.6413775086402893,0.2671639323234558 0.6450269818305969,0.2634761929512024 0.6486141681671143,0.2597665786743164 0.6521648168563843,0.25605297088623047 0.6557057499885559,0.2523495554924011 0.6592626571655273,0.24867290258407593 0.6628610491752625,0.24503421783447266 0.6665259003639221,0.24144619703292847 0.6702805161476135,0.23791706562042236 0.674148440361023,0.23445415496826172 0.6781516075134277,0.23106390237808228 0.6823079586029053,0.22775053977966309 0.6866357326507568,0.22451740503311157 0.6911493539810181,0.22136563062667847 0.6958615779876709,0.2182958722114563 0.7007808089256287,0.21530723571777344 0.7059121131896973,0.21239984035491943 0.711256742477417,0.20957154035568237 0.7168107628822327,0.206820547580719 0.7225675582885742,0.20414376258850098 0.7285123467445374,0.2015400528907776 0.7346289753913879,0.19900506734848022 0.7408958673477173,0.19653576612472534 0.7472863793373108,0.194128155708313 0.7537723779678345,0.19177639484405518 0.7603223919868469,0.1894756555557251 0.7669025659561157,0.18721842765808105 0.7734818458557129,0.1849968433380127 0.7800261974334717,0.18279999494552612 0.7865068912506104,0.1806158423423767 0.7928953766822815,0.17843198776245117 0.7991698384284973,0.17623227834701538 0.8053115606307983,0.1740005612373352 0.8113062381744385,0.17171818017959595 0.8171464800834656,0.16936641931533813 0.822830319404602,0.16692417860031128 0.828360378742218,0.1643708348274231 0.8337442278862,0.1616867184638977 0.8389943242073059,0.15885114669799805 0.8441270589828491,0.15584486722946167 0.8491621613502502,0.15265172719955444 0.8541203737258911,0.14925771951675415 0.8590269088745117,0.14565259218215942 0.8639052510261536,0.1418309211730957 0.8687790036201477,0.13779205083847046 0.8736727237701416,0.1335427165031433 0.8786059021949768,0.12909579277038574 0.883597195148468,0.12447184324264526 0.8886581063270569,0.11970001459121704 0.8937940001487732,0.11481732130050659 0.8990011215209961,0.10986649990081787 0.9042612314224243,0.10489702224731445 0.9095410704612732,0.09996342658996582 0.9147870540618896,0.09512019157409668 0.919923722743988,0.09042090177536011 0.9248514175415039,0.0859108567237854 0.9294506907463074,0.08162379264831543 0.9335883259773254,0.07757687568664551 0.9371298551559448,0.0737643837928772 0.9399530291557312,0.07015663385391235 0.9419616460800171,0.06669992208480835 0.9430984854698181,0.0633244514465332 0.9433502554893494,0.05995297431945801 0.9427440762519836,0.05651026964187622 0.9413408041000366,0.05293703079223633 0.9392261505126953,0.04919558763504028 0.9364978671073914,0.04527395963668823 0.9332602024078369,0.04118627309799194 0.9296171069145203,0.036971449851989746 0.9256677031517029,0.032686591148376465 0.9215018153190613,0.028402209281921387 0.9171958565711975,0.024196326732635498 0.9128074645996094,0.020147621631622314 0.9083746075630188,0.016333401203155518 0.9039108753204346,0.012825250625610352 0.8994072079658508,0.009689271450042725 0.8948328495025635,0.006983637809753418 0.890140175819397,0.004757225513458252 0.885269284248352,0.003044605255126953 0.8801558017730713,0.0018613338470458984 0.8747382760047913,0.0011972784996032715 0.8689656853675842,0.0010119080543518066 0.8628007769584656,0.00123518705368042 0.8562280535697937,0.0017731189727783203 0.8492580056190491,0.0025238394737243652 0.8419354557991028,0.0033979415893554688 0.8343508243560791,0.00434565544128418 0.8266506195068359,0.005380094051361084 0.8190389275550842,0.006587326526641846 0.8117542266845703,0.00811147689819336 0.8050219416618347,0.01010972261428833 0.7989931702613831,0.012692391872406006 0.7937034964561462,0.015882551670074463 0.7890787124633789,0.0196191668510437 0.7849790453910828,0.023793935775756836 0.7812530398368835,0.028294801712036133 0.7777714729309082,0.03302973508834839 0.7744402289390564,0.03793179988861084 0.7711963057518005,0.042956531047821045 0.7680023312568665,0.04807001352310181 0.7648365497589111,0.053248465061187744 0.7616881132125854,0.05847138166427612 0.7585533261299133,0.06372088193893433 0.7554315328598022,0.06898218393325806 0.7523247003555298,0.0742412805557251 0.7492361664772034,0.07948613166809082 0.7461678385734558,0.08470821380615234 0.7431226372718811,0.08989906311035156 0.7401018142700195,0.09505504369735718 0.7371052503585815,0.10017389059066772 0.7341320514678955,0.10525649785995483 0.7311798930168152,0.1103057861328125 0.7282453775405884,0.11532741785049438 0.7253230214118958,0.12032961845397949 0.7224079370498657,0.12532073259353638 0.7194937467575073,0.13031154870986938 0.7165746092796326,0.135312020778656 0.7136425971984863,0.1403353214263916 0.7106909155845642,0.1453932523727417 0.7077144980430603,0.15049409866333008 0.7047061324119568,0.15565067529678345 0.7016619443893433,0.16086935997009277 0.6985772848129272,0.1661580204963684 0.6954492926597595,0.17152166366577148 0.6922765970230103,0.17696261405944824 0.6890572905540466,0.1824842095375061 0.6857934594154358,0.18808269500732422 0.682486355304718,0.193756103515625 0.6791394352912903,0.19949835538864136 0.6757567524909973,0.20530259609222412 0.6723437905311584,0.211159348487854 0.6689061522483826,0.21705901622772217 0.6654500961303711,0.22299081087112427 0.661983847618103,0.22894060611724854 0.6585133075714111,0.23489826917648315 0.6550462245941162,0.24085044860839844 0.6515887379646301,0.2467867136001587 0.6481478214263916,0.2526949644088745 0.6447288990020752,0.25856566429138184 0.6413372159004211,0.2643898129463196 0.6379765272140503,0.2701614499092102 0.6346498727798462,0.2758747339248657 0.6313602924346924,0.281524658203125 0.6281080842018127,0.2871106266975403 0.6248940229415894,0.2926313281059265 0.6217176914215088,0.298087477684021 0.6185773611068726,0.30348217487335205 0.6154707670211792,0.3088189363479614 0.6123960614204407,0.3141011595726013 0.6093490719795227,0.31933581829071045 0.6063271760940552,0.3245276212692261 0.603326678276062,0.3296828866004944 0.6003434658050537,0.3348086476325989 0.5973739624023438,0.3399110436439514 0.5944147109985352,0.34499573707580566 0.5914619565010071,0.35006964206695557 0.5885137319564819,0.35513585805892944 0.5855664610862732,0.3602007031440735 0.5826182961463928,0.36526715755462646 0.5796674489974976,0.37033843994140625 0.5767130851745605,0.3754158616065979 0.5737540125846863,0.3805014491081238 0.5707906484603882,0.3855946660041809 0.5678220391273499,0.3906969428062439 0.564849853515625,0.3958056569099426 0.561874508857727,0.400920033454895 0.5588969588279724,0.40603816509246826 0.5559186935424805,0.4111579656600952 0.5529412031173706,0.4162762761116028 0.5499658584594727,0.4213911294937134 0.5469942092895508,0.4264998435974121 0.5440273880958557,0.43160027265548706 0.5410671234130859,0.43668967485427856 0.5381134152412415,0.44176793098449707 0.5351676940917969,0.44683247804641724 0.532230019569397,0.45188331604003906 0.5293002128601074,0.456920862197876 0.5263785719871521,0.461944580078125 0.5234637260437012,0.46695655584335327 0.5205554366111755,0.47195738554000854 0.5176522135734558,0.4769495725631714 0.5147525668144226,0.48193562030792236 0.51185542345047,0.4869176745414734 0.5089585185050964,0.49189943075180054 0.5060610771179199,0.496881902217865 0.5031602382659912,0.5018705129623413 0.5002553462982178,0.5068662166595459 0.4973446726799011,0.5118719339370728 0.49442654848098755,0.5168904066085815 0.4915007948875427,0.5219220519065857 0.48856666684150696,0.526968240737915 0.48562321066856384,0.5320305824279785 0.48267075419425964,0.537108302116394 0.47971034049987793,0.542199969291687 0.4767412841320038,0.5473062992095947 0.47376587986946106,0.5524237155914307 0.470785915851593,0.557548999786377 0.46780139207839966,0.5626821517944336 0.4648158848285675,0.567816972732544 0.46183064579963684,0.5729513168334961 0.45884814858436584,0.5780811309814453 0.4558699131011963,0.5832035541534424 0.45289888978004456,0.5883135795593262 0.44993653893470764,0.5934085845947266 0.44698500633239746,0.5984852313995361 0.44404521584510803,0.6035414934158325 0.4411192536354065,0.6085741519927979 0.4382065534591675,0.6135838031768799 0.43530887365341187,0.6185676455497742 0.4324256479740143,0.6235266327857971 0.42955639958381653,0.628461480140686 0.4267004132270813,0.6333736181259155 0.4238565266132355,0.6382646560668945 0.4210236370563507,0.6431369185447693 0.41820046305656433,0.6479924917221069 0.4153841435909271,0.6528360843658447 0.4125736653804779,0.6576695442199707 0.40976643562316895,0.6624972820281982 0.40696102380752563,0.6673219203948975 0.404155433177948,0.6721466779708862 0.4013485312461853,0.6769735813140869 0.3985385596752167,0.6818055510520935 0.39572563767433167,0.6866425275802612 0.3929078280925751,0.6914876699447632 0.39008647203445435,0.6963385939598083 0.38726097345352173,0.7011964917182922 0.38443225622177124,0.7060596942901611 0.38160115480422974,0.7109267115592957 0.37876883149147034,0.7157954573631287 0.3759366571903229,0.7206637859344482 0.3731059730052948,0.7255288362503052 0.37027794122695923,0.7303891181945801 0.3674542009830475,0.7352415323257446 0.36463654041290283,0.7400829792022705 0.3618241548538208,0.7449147701263428 0.3590184152126312,0.7497345209121704 0.3562201261520386,0.7545408606529236 0.3534287214279175,0.7593346834182739 0.3506436347961426,0.7641168236732483 0.3478640615940094,0.7688884139060974 0.34508925676345825,0.7736511826515198 0.3423175811767578,0.7784073352813721 0.33954763412475586,0.7831593751907349 0.33677852153778076,0.787908673286438 0.33400803804397583,0.7926589846611023 0.33123573660850525,0.7974109053611755 0.3284585773944855,0.8021694421768188 0.32567715644836426,0.8069334030151367 0.3228902816772461,0.8117047548294067 0.32009631395339966,0.8164860010147095 0.3172946870326996,0.8212777972221375 0.31448572874069214,0.8260795474052429 0.31166762113571167,0.830893874168396 0.3088398873806,0.8357213735580444 0.30600178241729736,0.8405628800392151 0.303152471780777,0.8454196453094482 0.3002893030643463,0.8502955436706543 0.2974119484424591,0.855190634727478 0.2945170998573303,0.8601099848747253 0.2916032075881958,0.865055501461029 0.2886672019958496,0.870031476020813 0.2857075333595276,0.8750393986701965 0.28272125124931335,0.8800827860832214 0.27970725297927856,0.8851619362831116 0.27666381001472473,0.8902771472930908 0.273592472076416,0.8954229354858398 0.270493745803833,0.9005943536758423 0.2673710286617279,0.9057803153991699 0.2642293870449066,0.9109651446342468 0.261074960231781,0.9161291718482971 0.25791439414024353,0.9212486743927002 0.2547546625137329,0.9262948632240295 0.2515999376773834,0.9312382936477661 0.24845059216022491,0.9360483884811401 0.24529992043972015,0.940696656703949 0.24212904274463654,0.9451622366905212 0.2389068901538849,0.9494300484657288 0.2355852574110031,0.9534962177276611 0.23209992051124573,0.9573664665222168 0.22837437689304352,0.9610527157783508 0.22432556748390198,0.9645713567733765 0.219876229763031,0.9679359793663025 0.21496684849262238,0.9711549282073975 0.20956861972808838,0.974227786064148 0.20369157195091248,0.9771437644958496 0.1973835974931717,0.9798868894577026 0.1907266080379486,0.9824329018592834 0.18382610380649567,0.9847506284713745 0.17679744958877563,0.9868022203445435 0.1697562038898468,0.9885417222976685 0.16280846297740936,0.9899171590805054 0.15604855120182037,0.9908699989318848 0.14955344796180725,0.9913415312767029 0.1433849185705185,0.9912760257720947 0.137588232755661,0.9906246066093445 0.1321936547756195,0.9893519878387451 0.12721684575080872,0.9874393939971924 0.12265986204147339,0.9848858714103699 0.11851293593645096,0.9817110300064087 0.11475593596696854,0.9779525995254517 0.11136090755462646,0.9736644625663757 0.10829439759254456,0.9689123630523682 0.10552001744508743,0.9637701511383057 0.10300102084875107,0.9583144187927246 0.10070241242647171,0.9526211023330688 0.09859172999858856,0.9467601180076599 0.09664084762334824,0.9407963752746582 0.09482517838478088,0.9347838163375854 0.0931241512298584,0.9287670850753784 0.09152064472436905,0.9227815866470337 0.09000027924776077,0.9168521761894226 0.08855047821998596,0.9109933972358704 0.0871606096625328,0.9052125215530396 0.08582126349210739,0.8995101451873779 0.08452337980270386,0.8938777446746826 0.08325852453708649,0.8883023858070374 0.08201859146356583,0.88276606798172 0.080796018242836,0.8772489428520203 0.07958337664604187,0.8717277646064758 0.07837387919425964,0.8661797046661377 0.07716137170791626,0.8605829477310181 0.07594063133001328,0.8549181222915649 0.07470765709877014,0.8491702079772949 0.07345975190401077,0.8433299660682678 0.07219590991735458,0.8373947143554688 0.0709167867898941,0.8313695788383484 0.06962424516677856,0.8252650499343872 0.06832190603017807,0.8190996646881104 0.06701431423425674,0.8128958940505981 0.06570646911859512,0.8066790103912354 0.06440341472625732,0.8004737496376038 0.06310959160327911,0.7943023443222046 0.06182841584086418,0.7881820201873779 0.06056198477745056,0.7821233868598938 0.05931052193045616,0.7761282324790955 0.058072321116924286,0.770188570022583 0.05684373155236244,0.7642866373062134 0.055618975311517715,0.7583935260772705 0.05439024791121483,0.7524701356887817 0.053147949278354645,0.746467113494873 0.05188096687197685,0.740325927734375 0.050577446818351746,0.7339816093444824 0.049226708710193634,0.7273709774017334 0.0478224940598011,0.7204456329345703 0.04636836424469948,0.7131948471069336 0.04488489404320717,0.7056750059127808 0.04341874644160271,0.6980458498001099 0.04204947128891945,0.6905913352966309 0.040889348834753036,0.6837033629417419 0.0400717593729496,0.6778053045272827 0.0397300086915493,0.6732287406921387 0.03997783362865448,0.6701076626777649 0.040900636464357376,0.6683623790740967 0.04255155846476555,0.6677756309509277 0.04493849724531174,0.6680902242660522 0.048001233488321304,0.6690675616264343 0.05160372704267502,0.6705013513565063 0.05555924400687218,0.6722169518470764 0.05968015268445015,0.6740761995315552 0.0638221874833107,0.6759829521179199 0.06790671497583389,0.6778846979141235 0.07191620022058487,0.6797643303871155 0.07587743550539017,0.6816296577453613 0.07984178513288498,0.6835019588470459 0.08386838436126709,0.6854077577590942 0.08801137655973434,0.687371551990509 0.09231356531381607,0.6894130706787109 0.09679940342903137,0.691543459892273 0.10147596895694733,0.6937658786773682 0.10632926225662231,0.6960734128952026 0.11132755875587463,0.6984508633613586 0.11642458289861679,0.700875997543335 0.12156154215335846,0.7033206820487976 0.1266726404428482,0.7057535648345947 0.13169164955615997,0.7081430554389954 0.13655507564544678,0.7104588150978088 0.1412068009376526,0.7126739621162415 0.14560043811798096,0.7147664427757263 0.14970190823078156,0.7167199850082397 0.1534903645515442,0.7185244560241699 0.156953826546669,0.7201743125915527 0.16009296476840973,0.7216697335243225 0.16291555762290955,0.7230143547058105 0.16543659567832947,0.7242153882980347 0.16767525672912598,0.7252818942070007 0.16965273022651672,0.7262240648269653 0.1713937520980835,0.7270535230636597 0.172921821475029,0.7277816534042358 0.1742609143257141,0.7284195423126221 0.1754336804151535,0.7289783954620361 0.1764608770608902,0.7294677495956421 0.17736445367336273,0.7298982739448547 0.17816124856472015,0.7302778959274292 0.17886883020401,0.7306150197982788 0.17950332164764404,0.7309172749519348 0.1800776720046997,0.7311909198760986 0.18060524761676788,0.7314422130584717 0.18109816312789917,0.7316770553588867 0.1815682202577591,0.7319009304046631 0.1820257604122162,0.7321189641952515 0.18248091638088226,0.7323356866836548 0.18294422328472137,0.7325563430786133 0.18342596292495728,0.732785701751709 0.1839362382888794,0.7330287098884583 0.18448618054389954,0.7332906723022461 0.18508663773536682,0.7335765957832336 0.1857493817806244,0.7338922023773193 0.18648803234100342,0.7342438697814941 0.1873161643743515,0.7346382141113281 0.1882486492395401,0.7350821495056152 0.18930208683013916,0.7355837821960449 0.1904948204755783,0.7361516952514648 0.19184470176696777,0.7367944717407227 0.1933722048997879,0.737521767616272 0.1951000988483429,0.7383445501327515 0.19704994559288025,0.739272952079773 0.19924458861351013,0.7403179407119751 0.20170781016349792,0.7414908409118652 0.2044619917869568,0.7428022623062134 0.20752684772014618,0.7442616820335388 0.21092075109481812,0.7458778023719788 0.2146572470664978,0.7476570010185242 0.21874389052391052,0.7496029734611511 0.22318197786808014,0.7517163753509521 0.22796307504177094,0.7539931535720825 0.23306991159915924,0.7564249634742737 0.23847490549087524,0.7589989304542542 0.24413958191871643,0.7616965174674988 0.2500142753124237,0.7644941806793213 0.25604313611984253,0.7673653364181519 0.2621622383594513,0.7702794075012207 0.26830339431762695,0.7732040882110596 0.2743961215019226,0.7761057615280151 0.2803770899772644,0.7789541482925415 0.286182165145874,0.781718909740448 0.29175740480422974,0.7843741178512573 0.29705753922462463,0.7868984937667847 0.30204707384109497,0.7892748117446899 0.30670222640037537,0.7914919257164001 0.31100738048553467,0.7935423851013184 0.31495657563209534,0.7954233288764954 0.31855306029319763,0.7971361875534058 0.32180437445640564,0.7986847162246704 0.32472458481788635,0.8000755906105042 0.3273313641548157,0.8013170957565308 0.32964515686035156,0.8024190664291382 0.3316853940486908,0.8033908605575562 0.3334747552871704,0.8042429685592651 0.33503392338752747,0.804985523223877 0.3363843560218811,0.8056286573410034 0.3375449776649475,0.8061813712120056 0.33853334188461304,0.8066519498825073 0.3393643796443939,0.8070476651191711 0.3400554060935974,0.8073766827583313 0.34061816334724426,0.8076446056365967 0.3410642445087433,0.8078568577766418 0.34140175580978394,0.8080174922943115 0.34164124727249146,0.8081312775611877 0.3417884409427643,0.8082011938095093 0.34184882044792175,0.8082296848297119 0.3418268859386444,0.8082189559936523 0.3417244255542755,0.8081698417663574 0.3415437340736389,0.8080834150314331 0.34128594398498535,0.8079602718353271 0.3409508168697357,0.8078001737594604 0.34053727984428406,0.8076027631759644 0.3400413691997528,0.8073660135269165 0.3394611179828644,0.80708909034729 0.338792622089386,0.8067700266838074 0.3380301594734192,0.8064061999320984 0.33716878294944763,0.8059951066970825 0.33620044589042664,0.8055330514907837 0.33511805534362793,0.8050165772438049 0.33391252160072327,0.8044413328170776 0.332576185464859,0.8038036823272705 0.3310970664024353,0.8030979037284851 0.3294646143913269,0.8023189306259155 0.3276677429676056,0.8014616370201111 0.32569342851638794,0.800519585609436 0.32352879643440247,0.7994867563247681 0.32116058468818665,0.7983567118644714 0.31857410073280334,0.797122597694397 0.3157578408718109,0.7957788705825806 0.3126955032348633,0.7943176627159119 0.30937641859054565,0.7927339673042297 0.3057859539985657,0.7910207509994507 0.301914244890213,0.7891733050346375 0.2977517247200012,0.7871870994567871 0.2932906746864319,0.7850583791732788 0.28852638602256775,0.7827849388122559 0.28345787525177,0.7803663015365601 0.2780870199203491,0.7778033018112183 0.2724214494228363,0.7750995755195618 0.26647183299064636,0.7722602486610413 0.26025673747062683,0.769294023513794 0.25379854440689087,0.766211748123169 0.24712488055229187,0.7630263566970825 0.24027006328105927,0.7597543001174927 0.23327498137950897,0.7564150094985962 0.2261834591627121,0.753029465675354 0.2190445363521576,0.7496206760406494 0.2119101881980896,0.7462135553359985 0.20483408868312836,0.74283367395401 0.19787226617336273,0.7395074367523193 0.19107812643051147,0.7362602949142456 0.1845056265592575,0.7331178784370422 0.17820335924625397,0.7301028966903687 0.17221839725971222,0.7272377610206604 0.1665908247232437,0.724541187286377 0.16135843098163605,0.7220306396484375 0.15655124187469482,0.7197200059890747 0.15219588577747345,0.7176213264465332 0.14831338822841644,0.7157436609268188 0.1449207067489624,0.7140942811965942 0.14203065633773804,0.7126775979995728 0.13965357840061188,0.7114970684051514 0.1377963274717331,0.7105535268783569 0.13646413385868073,0.7098467946052551 0.13565954566001892,0.7093745470046997 0.13538312911987305,0.7091325521469116 0.1356339156627655,0.7091149091720581 0.13640840351581573,0.7093130350112915 0.13769951462745667,0.709715723991394 0.13949993252754211,0.7103098630905151 0.14179787039756775,0.7110791206359863 0.14457975327968597,0.7120048999786377 0.14783135056495667,0.7130674719810486 0.15153655409812927,0.7142460346221924 0.155679851770401,0.7155196666717529 0.16024497151374817,0.7168680429458618 0.1652204543352127,0.7182736396789551 0.17059387266635895,0.7197200059890747 0.1763571798801422,0.721193790435791 0.18250218033790588,0.7226828932762146 0.18902470171451569,0.7241777777671814 0.19591903686523438,0.7256693243980408 0.20318114757537842,0.7271493673324585 0.21080219745635986,0.7286081314086914 0.21877367794513702,0.7300366163253784 0.22708171606063843,0.7314238548278809 0.23570793867111206,0.7327579259872437 0.2446288764476776,0.7340261936187744 0.2538168728351593,0.7352156639099121 0.26323676109313965,0.736312747001648 0.2728508710861206,0.7373051047325134 0.2826164960861206,0.7381809949874878 0.2924875319004059,0.738930344581604 0.30241766571998596,0.739546000957489 0.3123592138290405,0.740023136138916 0.3222658634185791,0.7403594255447388 0.33209386467933655,0.740556001663208 0.3418019115924835,0.7406165599822998 0.35135602951049805,0.7405480146408081 0.36072444915771484,0.740358829498291 0.3698826730251312,0.7400598526000977 0.3788125813007355,0.7396628856658936 0.387501060962677,0.739181399345398 0.39594292640686035,0.7386283874511719 0.4041357636451721,0.7380173802375793 0.41208457946777344,0.7373611330986023 0.41979625821113586,0.7366718649864197 0.427282452583313,0.7359606027603149 0.4345599412918091,0.7352378368377686 0.4416453540325165,0.7345125079154968 0.4485574960708618,0.7337915897369385 0.4553172290325165,0.7330820560455322 0.4619462490081787,0.7323887944221497 0.46846523880958557,0.7317150831222534 0.4748959243297577,0.7310641407966614 0.48125985264778137,0.730438232421875 0.4875759780406952,0.7298376560211182 0.49386441707611084,0.7292633652687073 0.5001420378684998,0.7287144660949707 0.5064254403114319,0.7281897068023682 0.5127271413803101,0.7276877164840698 0.5190610289573669,0.7272063493728638 0.5254373550415039,0.7267436981201172 0.5318642854690552,0.7262967228889465 0.5383478999137878,0.7258631587028503 0.5448930859565735,0.725440263748169 0.551500141620636,0.7250244617462158 0.55817049741745,0.7246130704879761 0.5649013519287109,0.7242037057876587 0.5716898441314697,0.7237929105758667 0.5785300731658936,0.7233784794807434 0.5854154825210571,0.722957968711853 0.5923373103141785,0.7225288152694702 0.5992873311042786,0.722088634967804 0.6062542796134949,0.7216354012489319 0.6132296919822693,0.7211687564849854 0.6202030777931213,0.7206859588623047 0.6271636486053467,0.7201864123344421 0.6341007947921753,0.7196688055992126 0.6410076022148132,0.7191329598426819 0.6478736400604248,0.7185777425765991 0.6546940207481384,0.7180039882659912 0.6614595055580139,0.7174097299575806 0.6681690216064453,0.716796338558197 0.6748172640800476,0.7161632776260376 0.6814029216766357,0.715509831905365 0.687924861907959,0.714836835861206 0.6943854689598083,0.7141438126564026 0.7007878422737122,0.7134310007095337 0.7071341276168823,0.7126972079277039 0.7134290933609009,0.711942195892334 0.7196800708770752,0.711165726184845 0.7258918285369873,0.7103657722473145 0.7320722341537476,0.7095420360565186 0.7382301092147827,0.7086935043334961 0.7443727254867554,0.7078180313110352 0.7505069375038147,0.7069131135940552 0.7566431760787964,0.7059783935546875 0.762787401676178,0.7050100564956665 0.7689474821090698,0.7040062546730042 0.7751301527023315,0.7029645442962646 0.7813402414321899,0.701880693435669 0.7875849604606628,0.7007540464401245 0.7938665747642517,0.699580192565918 0.8001899123191833,0.6983565092086792 0.8065567016601562,0.6970816254615784 0.8129666447639465,0.6957507133483887 0.8194209337234497,0.6943626403808594 0.8259174823760986,0.6929148435592651 0.832456111907959,0.6914068460464478 0.8390334844589233,0.6898374557495117 0.8456478714942932,0.6882078647613525 0.8522942662239075,0.6865179538726807 0.8589732050895691,0.6847728490829468 0.8656793236732483,0.6829750537872314 0.8724098801612854,0.6811311841011047 0.8791664838790894,0.6792528629302979 0.885943591594696,0.6773488521575928 0.8927391171455383,0.6754345893859863 0.8995479345321655,0.6735280156135559 0.9063578248023987,0.6716475486755371 0.9131519198417664,0.6698163151741028 0.919901430606842,0.6680575609207153 0.9265629053115845,0.6663939952850342 0.9330730438232422,0.6648414134979248 0.9393526315689087,0.6634128093719482 0.9453000426292419,0.6621061563491821 0.9507949948310852,0.6608989238739014 0.955713152885437,0.6597540378570557 0.9599289894104004,0.6586100459098816 0.963329553604126,0.6573858261108398 0.9658277630805969,0.6559914350509644 0.9673762321472168,0.6543421149253845 0.9679680466651917,0.6523668766021729 0.9676430821418762,0.6500250101089478 0.9664899706840515,0.6473173499107361 0.9646342396736145,0.6442841291427612 0.9622317552566528,0.6410022974014282 0.9594558477401733,0.6375778913497925 0.956477701663971,0.6341259479522705 0.9534598588943481,0.6307637691497803 0.9505407214164734,0.6275951266288757 0.9478362798690796,0.6247091889381409 0.9454312324523926,0.6221706867218018 0.9433845281600952,0.6200243234634399 0.9417344331741333,0.6182971000671387 0.940502405166626,0.6170033812522888 0.9396951794624329,0.6161442995071411 0.939314067363739,0.6157166957855225 0.9393565058708191,0.6157159209251404 0.9398164749145508,0.616133451461792 0.9406834244728088,0.616956889629364 0.9419516921043396,0.6181802749633789 0.9436132907867432,0.6197943687438965 0.9456588625907898,0.621789276599884 0.9480821490287781,0.624158501625061 0.9508702158927917,0.6268885135650635 0.9540120363235474,0.6299682855606079 0.9574921727180481,0.6333825588226318 0.9612912535667419,0.6371117830276489 0.9653880596160889,0.641135036945343 0.969751238822937,0.6454212665557861 0.9743451476097107,0.6499353647232056 0.9791309833526611,0.6546390056610107 0.9840548038482666,0.6594789028167725 0.9890598058700562,0.6643990278244019 0.9940789341926575,0.6693336963653564 0.9990378022193909,0.6742092370986938 1.003852367401123,0.6789429187774658 1.0084309577941895,0.6834445595741272 1.0126734972000122,0.6876157522201538 1.0164750814437866,0.6913529634475708 1.0197218656539917,0.69454425573349 1.0223006010055542,0.6970780491828918 1.02409029006958,0.6988350749015808 1.0249733924865723,0.6996998190879822 1.0248321294784546,0.6995562314987183 1.0235555171966553,0.698294997215271 1.021042823791504,0.6958170533180237 1.0172046422958374,0.6920341849327087 1.0119699239730835,0.6868764758110046 1.0052900314331055,0.6802961826324463 0.9971460700035095,0.6722744703292847 0.9875512719154358,0.6628246307373047 0.9765466451644897,0.6519866585731506 0.9642162322998047,0.6398437023162842 0.9506750702857971,0.6265085935592651 0.9360600113868713,0.6121163368225098 0.9205347895622253,0.5968281030654907 0.9042705297470093,0.580812394618988 0.8874368667602539,0.5642361044883728 0.8701933026313782,0.547256350517273 0.85267573595047,0.5300071239471436 0.8349961638450623,0.5125981569290161 0.8172313570976257,0.4951056241989136 0.7994311451911926,0.47757798433303833 0.7816202640533447,0.4600401520729065 0.7637971639633179,0.44249022006988525 0.7459498643875122,0.4249165654182434 0.7280610799789429,0.4073021411895752 0.710115909576416,0.3896322250366211 0.6921136975288391,0.37190598249435425 0.674067497253418,0.3541366457939148 0.6560103297233582,0.336356520652771 0.6380091905593872,0.31863147020339966 0.6201502680778503,0.3010467290878296 0.6025416851043701,0.2837081551551819 0.5853139162063599,0.26674455404281616 0.5686063766479492,0.2502933740615845 0.5525610446929932,0.234494149684906 0.5373141765594482,0.21948111057281494 0.5229859352111816,0.20537269115447998 0.5096734166145325,0.19226425886154175 0.49744462966918945,0.18022304773330688 0.48633718490600586,0.16928601264953613 0.476357638835907,0.15945935249328613 0.46748223900794983,0.15072011947631836 0.4596635103225708,0.14302104711532593 0.4528350234031677,0.13629716634750366 0.4469166696071625,0.13046938180923462 0.4418210983276367,0.12545186281204224 0.4374585747718811,0.12115627527236938 0.4337407052516937,0.11749523878097534 0.43058350682258606,0.11438637971878052 0.4279092848300934,0.11175304651260376 0.42564794421195984,0.10952645540237427 0.423737496137619,0.10764527320861816 0.42212364077568054,0.10605615377426147 0.4207597076892853,0.10471296310424805 0.41960546374320984,0.10357636213302612 0.41862720251083374,0.10261315107345581 0.41779643297195435,0.10179507732391357 0.41708919405937195,0.10109865665435791 0.41648560762405396,0.10050427913665771 0.4159690737724304,0.09999561309814453 0.4155256152153015,0.0995590090751648 0.4151439070701599,0.0991830825805664 0.4148143529891968,0.09885847568511963 0.41452887654304504,0.09857743978500366 0.41428104043006897,0.09833329916000366 0.41406524181365967,0.09812086820602417 0.4138769507408142,0.09793543815612793 0.4137122631072998,0.09777325391769409 0.4135679006576538,0.09763121604919434 0.4134412109851837,0.09750628471374512 0.41332969069480896,0.09739655256271362 0.4132314622402191,0.09729981422424316 0.4131447970867157,0.09721440076828003 0.41306811571121216,0.09713917970657349 0.4130004048347473,0.09707236289978027 0.4129403829574585,0.09701329469680786 0.41288724541664124,0.09696096181869507 0.41284021735191345,0.09691458940505981 0.4127984642982483,0.09687364101409912 0.4127616286277771,0.09683716297149658 0.4127289652824402,0.0968051552772522 0.41270020604133606,0.09677678346633911 0.4126749038696289,0.096751868724823 0.41265276074409485,0.09672999382019043 0.41263338923454285,0.09671103954315186 0.41261667013168335,0.09669452905654907 0.41260233521461487,0.0966804027557373 0.4125902056694031,0.09666842222213745 0.41258010268211365,0.09665858745574951 0.4125719666481018,0.09665048122406006 0.4125656187534332,0.09664428234100342 0.4125610589981079,0.09663969278335571 0.41255807876586914,0.09663689136505127 0.41255679726600647,0.09663552045822144 0.41255706548690796,0.09663587808609009 0.412558913230896,0.09663760662078857 0.4125623106956482,0.09664106369018555 0.4125673472881317,0.09664583206176758 0.412573903799057,0.09665238857269287 0.412582129240036,0.09666049480438232 0.4125920236110687,0.09667032957077026 0.4126037657260895,0.09668171405792236 0.41261720657348633,0.09669512510299683 0.41263261437416077,0.096710205078125 0.41265004873275757,0.09672737121582031 0.4126695990562439,0.09674656391143799 0.4126913845539093,0.09676796197891235 0.41271546483039856,0.09679168462753296 0.41274207830429077,0.09681785106658936 0.4127712547779083,0.09684669971466064 0.4128032624721527,0.09687823057174683 0.4128381311893463,0.09691256284713745 0.41287609934806824,0.0969499945640564 " fill="none" stroke="black" stroke-width="0.002"/>
</svg>
